<svg width="64" height="64" viewBox="0 0 64 64" fill="none" xmlns="http://www.w3.org/2000/svg">
<rect width="64" height="64" rx="8" fill="#2D268B"/>
<path d="M7.9294 49L18.3034 18.346C18.9274 16.578 19.7854 15.226 20.8774 14.29C21.9694 13.302 23.8414 12.808 26.4934 12.808C28.8854 12.808 30.6534 13.25 31.7974 14.134C32.9414 15.018 33.8514 16.422 34.5274 18.346L45.1354 49H38.6614L35.3074 39.094H15.8074L12.6094 49H7.9294ZM16.8214 36.364H34.2154L29.0674 20.686C28.8074 19.906 28.4694 19.23 28.0534 18.658C27.6374 18.034 26.8054 17.722 25.5574 17.722C24.1534 17.722 23.2174 18.034 22.7494 18.658C22.3334 19.282 22.0214 19.958 21.8134 20.686L16.8214 36.364ZM46.9038 49C46.9038 43.436 46.9038 37.872 46.9038 32.308C46.9038 26.744 46.9038 21.18 46.9038 15.616C46.9038 15.044 46.9298 14.602 46.9818 14.29C47.0858 13.926 47.2678 13.64 47.5278 13.432C47.8398 13.224 48.3338 13.12 49.0098 13.12H52.9098V49H46.9038Z" fill="white"/>
</svg>
