<?xml version="1.0" encoding="utf-8"?><svg xmlns="http://www.w3.org/2000/svg" xmlns:xlink="http://www.w3.org/1999/xlink" width="1280" height="658" preserveAspectRatio="xMidYMid" viewBox="0 0 1280 658" style="z-index:1;display:block;background-color:rgb(241, 242, 243);animation-play-state:paused" ><g transform="translate(640,329) scale(1,1) translate(-640,-329)" style="animation-play-state:paused" ><g id="bk-0.7711633903972233" style="animation-play-state:paused" ><path d="M622 340L539 261L540 362z" stroke="#ff7900" fill="#ff7900" style="animation-play-state:paused" ></path>
<path d="M622 340L632 252L539 261z" stroke="#ff7600" fill="#ff7600" style="animation-play-state:paused" ></path>
<path d="M427 351L529 446L540 362z" stroke="#ff7d00" fill="#ff7d00" style="animation-play-state:paused" ></path>
<path d="M540 362L630 457L622 340z" stroke="#ff8700" fill="#ff8700" style="animation-play-state:paused" ></path>
<path d="M543 158L433 253L539 261z" stroke="#ff6200" fill="#ff6200" style="animation-play-state:paused" ></path>
<path d="M539 261L427 351L540 362z" stroke="#ff7400" fill="#ff7400" style="animation-play-state:paused" ></path>
<path d="M433 253L427 351L539 261z" stroke="#ff6900" fill="#ff6900" style="animation-play-state:paused" ></path>
<path d="M529 446L630 457L540 362z" stroke="#ff8900" fill="#ff8900" style="animation-play-state:paused" ></path>
<path d="M622 340L755 275L632 252z" stroke="#ff7d00" fill="#ff7d00" style="animation-play-state:paused" ></path>
<path d="M632 252L543 158L539 261z" stroke="#ff6700" fill="#ff6700" style="animation-play-state:paused" ></path>
<path d="M754 178L641 160L632 252z" stroke="#ff6b00" fill="#ff6b00" style="animation-play-state:paused" ></path>
<path d="M632 252L641 160L543 158z" stroke="#ff6400" fill="#ff6400" style="animation-play-state:paused" ></path>
<path d="M746 377L755 275L622 340z" stroke="#ff8800" fill="#ff8800" style="animation-play-state:paused" ></path>
<path d="M720 446L746 377L622 340z" stroke="#ff9000" fill="#ff9000" style="animation-play-state:paused" ></path>
<path d="M630 457L720 446L622 340z" stroke="#ff9000" fill="#ff9000" style="animation-play-state:paused" ></path>
<path d="M427 351L428 448L529 446z" stroke="#ff7d00" fill="#ff7d00" style="animation-play-state:paused" ></path>
<path d="M529 446L528 542L630 457z" stroke="#ff9000" fill="#ff9000" style="animation-play-state:paused" ></path>
<path d="M451 80L427 150L543 158z" stroke="#ff5100" fill="#ff5100" style="animation-play-state:paused" ></path>
<path d="M543 158L427 150L433 253z" stroke="#ff5a00" fill="#ff5a00" style="animation-play-state:paused" ></path>
<path d="M433 253L342 263L427 351z" stroke="#ff6300" fill="#ff6300" style="animation-play-state:paused" ></path>
<path d="M427 351L328 348L428 448z" stroke="#ff7100" fill="#ff7100" style="animation-play-state:paused" ></path>
<path d="M855 173L754 178L755 275z" stroke="#ff7700" fill="#ff7700" style="animation-play-state:paused" ></path>
<path d="M755 275L754 178L632 252z" stroke="#ff7600" fill="#ff7600" style="animation-play-state:paused" ></path>
<path d="M427 150L342 263L433 253z" stroke="#ff5a00" fill="#ff5a00" style="animation-play-state:paused" ></path>
<path d="M428 448L528 542L529 446z" stroke="#ff8900" fill="#ff8900" style="animation-play-state:paused" ></path>
<path d="M630 457L735 549L720 446z" stroke="#ff9e00" fill="#ff9e00" style="animation-play-state:paused" ></path>
<path d="M342 263L328 348L427 351z" stroke="#ff6400" fill="#ff6400" style="animation-play-state:paused" ></path>
<path d="M428 448L451 564L528 542z" stroke="#ff8b00" fill="#ff8b00" style="animation-play-state:paused" ></path>
<path d="M749 65L648 62L641 160z" stroke="#ff5900" fill="#ff5900" style="animation-play-state:paused" ></path>
<path d="M641 160L648 62L543 158z" stroke="#ff5a00" fill="#ff5a00" style="animation-play-state:paused" ></path>
<path d="M648 62L536 57L543 158z" stroke="#ff5100" fill="#ff5100" style="animation-play-state:paused" ></path>
<path d="M536 57L451 80L543 158z" stroke="#ff4e00" fill="#ff4e00" style="animation-play-state:paused" ></path>
<path d="M427 150L327 144L342 263z" stroke="#ff5100" fill="#ff5100" style="animation-play-state:paused" ></path>
<path d="M528 542L655 578L630 457z" stroke="#ff9a00" fill="#ff9a00" style="animation-play-state:paused" ></path>
<path d="M328 348L338 467L428 448z" stroke="#ff7400" fill="#ff7400" style="animation-play-state:paused" ></path>
<path d="M854 474L845 370L746 377z" stroke="#ff9e00" fill="#ff9e00" style="animation-play-state:paused" ></path>
<path d="M746 377L845 370L755 275z" stroke="#ff8f00" fill="#ff8f00" style="animation-play-state:paused" ></path>
<path d="M854 474L746 377L720 446z" stroke="#ff9e00" fill="#ff9e00" style="animation-play-state:paused" ></path>
<path d="M845 370L850 278L755 275z" stroke="#ff8c00" fill="#ff8c00" style="animation-play-state:paused" ></path>
<path d="M754 178L749 65L641 160z" stroke="#ff6100" fill="#ff6100" style="animation-play-state:paused" ></path>
<path d="M338 467L451 564L428 448z" stroke="#ff8100" fill="#ff8100" style="animation-play-state:paused" ></path>
<path d="M528 542L627 646L655 578z" stroke="#ffa100" fill="#ffa100" style="animation-play-state:paused" ></path>
<path d="M655 578L735 549L630 457z" stroke="#ffa200" fill="#ffa200" style="animation-play-state:paused" ></path>
<path d="M357 71L327 144L427 150z" stroke="#ff4600" fill="#ff4600" style="animation-play-state:paused" ></path>
<path d="M342 263L248 275L328 348z" stroke="#ff5c00" fill="#ff5c00" style="animation-play-state:paused" ></path>
<path d="M858 74L749 65L754 178z" stroke="#ff6000" fill="#ff6000" style="animation-play-state:paused" ></path>
<path d="M648 62L634 -47L536 57z" stroke="#ff4500" fill="#ff4500" style="animation-play-state:paused" ></path>
<path d="M850 278L855 173L755 275z" stroke="#ff8000" fill="#ff8000" style="animation-play-state:paused" ></path>
<path d="M735 549L854 474L720 446z" stroke="#ffa700" fill="#ffa700" style="animation-play-state:paused" ></path>
<path d="M940 363L930 251L850 278z" stroke="#ff9100" fill="#ff9100" style="animation-play-state:paused" ></path>
<path d="M451 80L357 71L427 150z" stroke="#ff4600" fill="#ff4600" style="animation-play-state:paused" ></path>
<path d="M447 -35L357 71L451 80z" stroke="#ff3900" fill="#ff3900" style="animation-play-state:paused" ></path>
<path d="M260 174L342 263L327 144z" stroke="#ff4e00" fill="#ff4e00" style="animation-play-state:paused" ></path>
<path d="M260 174L248 275L342 263z" stroke="#ff5200" fill="#ff5200" style="animation-play-state:paused" ></path>
<path d="M328 348L245 362L338 467z" stroke="#ff6800" fill="#ff6800" style="animation-play-state:paused" ></path>
<path d="M248 275L245 362L328 348z" stroke="#ff5e00" fill="#ff5e00" style="animation-play-state:paused" ></path>
<path d="M550 669L627 646L528 542z" stroke="#ff9f00" fill="#ff9f00" style="animation-play-state:paused" ></path>
<path d="M655 578L723 647L735 549z" stroke="#ffad00" fill="#ffad00" style="animation-play-state:paused" ></path>
<path d="M735 549L830 547L854 474z" stroke="#ffb000" fill="#ffb000" style="animation-play-state:paused" ></path>
<path d="M249 480L356 578L338 467z" stroke="#ff7800" fill="#ff7800" style="animation-play-state:paused" ></path>
<path d="M338 467L356 578L451 564z" stroke="#ff8300" fill="#ff8300" style="animation-play-state:paused" ></path>
<path d="M451 564L550 669L528 542z" stroke="#ff9600" fill="#ff9600" style="animation-play-state:paused" ></path>
<path d="M241 57L260 174L327 144z" stroke="#ff3e00" fill="#ff3e00" style="animation-play-state:paused" ></path>
<path d="M723 647L830 547L735 549z" stroke="#ffb200" fill="#ffb200" style="animation-play-state:paused" ></path>
<path d="M456 671L550 669L451 564z" stroke="#ff9600" fill="#ff9600" style="animation-play-state:paused" ></path>
<path d="M245 362L249 480L338 467z" stroke="#ff6b00" fill="#ff6b00" style="animation-play-state:paused" ></path>
<path d="M940 363L850 278L845 370z" stroke="#ff9600" fill="#ff9600" style="animation-play-state:paused" ></path>
<path d="M850 278L930 251L855 173z" stroke="#ff8200" fill="#ff8200" style="animation-play-state:paused" ></path>
<path d="M940 363L845 370L927 455z" stroke="#ffa400" fill="#ffa400" style="animation-play-state:paused" ></path>
<path d="M718 -61L634 -47L648 62z" stroke="#ff4100" fill="#ff4100" style="animation-play-state:paused" ></path>
<path d="M536 57L447 -35L451 80z" stroke="#ff3d00" fill="#ff3d00" style="animation-play-state:paused" ></path>
<path d="M634 -47L528 -52L536 57z" stroke="#ff3900" fill="#ff3900" style="animation-play-state:paused" ></path>
<path d="M941 164L858 74L855 173z" stroke="#ff6d00" fill="#ff6d00" style="animation-play-state:paused" ></path>
<path d="M855 173L858 74L754 178z" stroke="#ff6a00" fill="#ff6a00" style="animation-play-state:paused" ></path>
<path d="M749 65L718 -61L648 62z" stroke="#ff4c00" fill="#ff4c00" style="animation-play-state:paused" ></path>
<path d="M640 761L723 647L627 646z" stroke="#ffaf00" fill="#ffaf00" style="animation-play-state:paused" ></path>
<path d="M627 646L723 647L655 578z" stroke="#ffac00" fill="#ffac00" style="animation-play-state:paused" ></path>
<path d="M528 -52L447 -35L536 57z" stroke="#ff3400" fill="#ff3400" style="animation-play-state:paused" ></path>
<path d="M357 71L241 57L327 144z" stroke="#ff3a00" fill="#ff3a00" style="animation-play-state:paused" ></path>
<path d="M927 455L845 370L854 474z" stroke="#ffa800" fill="#ffa800" style="animation-play-state:paused" ></path>
<path d="M950 580L927 455L854 474z" stroke="#ffb700" fill="#ffb700" style="animation-play-state:paused" ></path>
<path d="M345 664L456 671L451 564z" stroke="#ff8f00" fill="#ff8f00" style="animation-play-state:paused" ></path>
<path d="M930 251L941 164L855 173z" stroke="#ff7c00" fill="#ff7c00" style="animation-play-state:paused" ></path>
<path d="M1037 256L941 164L930 251z" stroke="#ff8600" fill="#ff8600" style="animation-play-state:paused" ></path>
<path d="M832 -45L718 -61L749 65z" stroke="#ff4800" fill="#ff4800" style="animation-play-state:paused" ></path>
<path d="M634 -47L543 -133L528 -52z" stroke="#ff2d00" fill="#ff2d00" style="animation-play-state:paused" ></path>
<path d="M249 480L231 554L356 578z" stroke="#ff7700" fill="#ff7700" style="animation-play-state:paused" ></path>
<path d="M356 578L345 664L451 564z" stroke="#ff8900" fill="#ff8900" style="animation-play-state:paused" ></path>
<path d="M152 476L231 554L249 480z" stroke="#ff6b00" fill="#ff6b00" style="animation-play-state:paused" ></path>
<path d="M152 476L249 480L245 362z" stroke="#ff6400" fill="#ff6400" style="animation-play-state:paused" ></path>
<path d="M336 -55L241 57L357 71z" stroke="#ff2e00" fill="#ff2e00" style="animation-play-state:paused" ></path>
<path d="M260 174L151 274L248 275z" stroke="#ff4d00" fill="#ff4d00" style="animation-play-state:paused" ></path>
<path d="M248 275L151 274L245 362z" stroke="#ff5500" fill="#ff5500" style="animation-play-state:paused" ></path>
<path d="M241 663L345 664L356 578z" stroke="#ff8300" fill="#ff8300" style="animation-play-state:paused" ></path>
<path d="M137 147L151 274L260 174z" stroke="#ff4200" fill="#ff4200" style="animation-play-state:paused" ></path>
<path d="M723 647L841 653L830 547z" stroke="#ffba00" fill="#ffba00" style="animation-play-state:paused" ></path>
<path d="M830 547L950 580L854 474z" stroke="#ffb800" fill="#ffb800" style="animation-play-state:paused" ></path>
<path d="M736 753L841 653L723 647z" stroke="#ffbc00" fill="#ffbc00" style="animation-play-state:paused" ></path>
<path d="M640 761L627 646L550 669z" stroke="#ffa900" fill="#ffa900" style="animation-play-state:paused" ></path>
<path d="M436 -145L336 -55L447 -35z" stroke="#ff2600" fill="#ff2600" style="animation-play-state:paused" ></path>
<path d="M447 -35L336 -55L357 71z" stroke="#ff2e00" fill="#ff2e00" style="animation-play-state:paused" ></path>
<path d="M436 -145L447 -35L528 -52z" stroke="#ff2900" fill="#ff2900" style="animation-play-state:paused" ></path>
<path d="M858 74L832 -45L749 65z" stroke="#ff5400" fill="#ff5400" style="animation-play-state:paused" ></path>
<path d="M949 -25L832 -45L858 74z" stroke="#ff5100" fill="#ff5100" style="animation-play-state:paused" ></path>
<path d="M648 -130L634 -47L718 -61z" stroke="#ff3100" fill="#ff3100" style="animation-play-state:paused" ></path>
<path d="M648 -130L543 -133L634 -47z" stroke="#ff2b00" fill="#ff2b00" style="animation-play-state:paused" ></path>
<path d="M1053 170L954 76L941 164z" stroke="#ff7300" fill="#ff7300" style="animation-play-state:paused" ></path>
<path d="M941 164L954 76L858 74z" stroke="#ff6800" fill="#ff6800" style="animation-play-state:paused" ></path>
<path d="M123 344L152 476L245 362z" stroke="#ff5c00" fill="#ff5c00" style="animation-play-state:paused" ></path>
<path d="M759 -126L648 -130L718 -61z" stroke="#ff2f00" fill="#ff2f00" style="animation-play-state:paused" ></path>
<path d="M151 274L123 344L245 362z" stroke="#ff5400" fill="#ff5400" style="animation-play-state:paused" ></path>
<path d="M552 764L550 669L456 671z" stroke="#ff9e00" fill="#ff9e00" style="animation-play-state:paused" ></path>
<path d="M552 764L640 761L550 669z" stroke="#ffa700" fill="#ffa700" style="animation-play-state:paused" ></path>
<path d="M451 766L552 764L456 671z" stroke="#ff9b00" fill="#ff9b00" style="animation-play-state:paused" ></path>
<path d="M1056 379L1037 256L940 363z" stroke="#ff9f00" fill="#ff9f00" style="animation-play-state:paused" ></path>
<path d="M940 363L1037 256L930 251z" stroke="#ff9300" fill="#ff9300" style="animation-play-state:paused" ></path>
<path d="M1056 379L940 363L927 455z" stroke="#ffaa00" fill="#ffaa00" style="animation-play-state:paused" ></path>
<path d="M841 653L950 580L830 547z" stroke="#ffc000" fill="#ffc000" style="animation-play-state:paused" ></path>
<path d="M241 57L137 147L260 174z" stroke="#ff3700" fill="#ff3700" style="animation-play-state:paused" ></path>
<path d="M151 274L53 270L123 344z" stroke="#ff4a00" fill="#ff4a00" style="animation-play-state:paused" ></path>
<path d="M140 63L137 147L241 57z" stroke="#ff2e00" fill="#ff2e00" style="animation-play-state:paused" ></path>
<path d="M835 -142L759 -126L832 -45z" stroke="#ff3200" fill="#ff3200" style="animation-play-state:paused" ></path>
<path d="M832 -45L759 -126L718 -61z" stroke="#ff3700" fill="#ff3700" style="animation-play-state:paused" ></path>
<path d="M345 664L451 766L456 671z" stroke="#ff9200" fill="#ff9200" style="animation-play-state:paused" ></path>
<path d="M835 758L736 753L640 761z" stroke="#ffbc00" fill="#ffbc00" style="animation-play-state:paused" ></path>
<path d="M640 761L736 753L723 647z" stroke="#ffb600" fill="#ffb600" style="animation-play-state:paused" ></path>
<path d="M841 653L948 669L950 580z" stroke="#ffc900" fill="#ffc900" style="animation-play-state:paused" ></path>
<path d="M543 -133L436 -145L528 -52z" stroke="#ff2600" fill="#ff2600" style="animation-play-state:paused" ></path>
<path d="M835 -142L436 -145L543 -133z" stroke="#ff2600" fill="#ff2600" style="animation-play-state:paused" ></path>
<path d="M327 -148L436 -145L835 -142z" stroke="#ff2100" fill="#ff2100" style="animation-play-state:paused" ></path>
<path d="M141 659L241 663L231 554z" stroke="#ff7500" fill="#ff7500" style="animation-play-state:paused" ></path>
<path d="M231 554L241 663L356 578z" stroke="#ff7c00" fill="#ff7c00" style="animation-play-state:paused" ></path>
<path d="M345 664L323 748L451 766z" stroke="#ff8e00" fill="#ff8e00" style="animation-play-state:paused" ></path>
<path d="M1048 464L1056 379L927 455z" stroke="#ffb300" fill="#ffb300" style="animation-play-state:paused" ></path>
<path d="M248 -129L238 -47L336 -55z" stroke="#ff1e00" fill="#ff1e00" style="animation-play-state:paused" ></path>
<path d="M336 -55L238 -47L241 57z" stroke="#ff2700" fill="#ff2700" style="animation-play-state:paused" ></path>
<path d="M140 -33L140 63L241 57z" stroke="#ff2700" fill="#ff2700" style="animation-play-state:paused" ></path>
<path d="M1119 140L1053 170L1149 275z" stroke="#ff8700" fill="#ff8700" style="animation-play-state:paused" ></path>
<path d="M1037 256L1053 170L941 164z" stroke="#ff8300" fill="#ff8300" style="animation-play-state:paused" ></path>
<path d="M950 580L1048 464L927 455z" stroke="#ffbd00" fill="#ffbd00" style="animation-play-state:paused" ></path>
<path d="M241 663L323 748L345 664z" stroke="#ff8400" fill="#ff8400" style="animation-play-state:paused" ></path>
<path d="M152 476L142 557L231 554z" stroke="#ff6900" fill="#ff6900" style="animation-play-state:paused" ></path>
<path d="M29 549L142 557L152 476z" stroke="#ff6100" fill="#ff6100" style="animation-play-state:paused" ></path>
<path d="M1029 -55L949 -25L954 76z" stroke="#ff5500" fill="#ff5500" style="animation-play-state:paused" ></path>
<path d="M954 76L949 -25L858 74z" stroke="#ff5b00" fill="#ff5b00" style="animation-play-state:paused" ></path>
<path d="M552 764L835 758L640 761z" stroke="#ffb400" fill="#ffb400" style="animation-play-state:paused" ></path>
<path d="M736 753L835 758L841 653z" stroke="#ffc300" fill="#ffc300" style="animation-play-state:paused" ></path>
<path d="M950 580L1053 572L1048 464z" stroke="#ffc700" fill="#ffc700" style="animation-play-state:paused" ></path>
<path d="M932 749L948 669L841 653z" stroke="#ffcd00" fill="#ffcd00" style="animation-play-state:paused" ></path>
<path d="M835 -142L543 -133L648 -130z" stroke="#ff2900" fill="#ff2900" style="animation-play-state:paused" ></path>
<path d="M436 -145L327 -148L336 -55z" stroke="#ff1d00" fill="#ff1d00" style="animation-play-state:paused" ></path>
<path d="M238 -47L140 -33L241 57z" stroke="#ff2400" fill="#ff2400" style="animation-play-state:paused" ></path>
<path d="M952 -131L835 -142L832 -45z" stroke="#ff3600" fill="#ff3600" style="animation-play-state:paused" ></path>
<path d="M759 -126L835 -142L648 -130z" stroke="#ff2c00" fill="#ff2c00" style="animation-play-state:paused" ></path>
<path d="M26 150L53 270L137 147z" stroke="#ff3300" fill="#ff3300" style="animation-play-state:paused" ></path>
<path d="M137 147L53 270L151 274z" stroke="#ff4000" fill="#ff4000" style="animation-play-state:paused" ></path>
<path d="M123 344L42 369L152 476z" stroke="#ff5600" fill="#ff5600" style="animation-play-state:paused" ></path>
<path d="M53 270L42 369L123 344z" stroke="#ff4a00" fill="#ff4a00" style="animation-play-state:paused" ></path>
<path d="M1053 170L1054 70L954 76z" stroke="#ff6e00" fill="#ff6e00" style="animation-play-state:paused" ></path>
<path d="M1119 140L1054 70L1053 170z" stroke="#ff7600" fill="#ff7600" style="animation-play-state:paused" ></path>
<path d="M327 -148L248 -129L336 -55z" stroke="#ff1a00" fill="#ff1a00" style="animation-play-state:paused" ></path>
<path d="M1049 672L1053 572L950 580z" stroke="#ffd100" fill="#ffd100" style="animation-play-state:paused" ></path>
<path d="M1048 464L1130 444L1056 379z" stroke="#ffb800" fill="#ffb800" style="animation-play-state:paused" ></path>
<path d="M1149 275L1053 170L1037 256z" stroke="#ff8e00" fill="#ff8e00" style="animation-play-state:paused" ></path>
<path d="M43 660L141 659L142 557z" stroke="#ff6800" fill="#ff6800" style="animation-play-state:paused" ></path>
<path d="M142 557L141 659L231 554z" stroke="#ff6e00" fill="#ff6e00" style="animation-play-state:paused" ></path>
<path d="M241 663L236 758L323 748z" stroke="#ff8100" fill="#ff8100" style="animation-play-state:paused" ></path>
<path d="M155 -133L140 -33L238 -47z" stroke="#ff1800" fill="#ff1800" style="animation-play-state:paused" ></path>
<path d="M43 65L26 150L137 147z" stroke="#ff2c00" fill="#ff2c00" style="animation-play-state:paused" ></path>
<path d="M141 659L236 758L241 663z" stroke="#ff7800" fill="#ff7800" style="animation-play-state:paused" ></path>
<path d="M323 748L236 758L451 766z" stroke="#ff8a00" fill="#ff8a00" style="animation-play-state:paused" ></path>
<path d="M835 758L932 749L841 653z" stroke="#ffcb00" fill="#ffcb00" style="animation-play-state:paused" ></path>
<path d="M948 669L1049 672L950 580z" stroke="#ffd100" fill="#ffd100" style="animation-play-state:paused" ></path>
<path d="M-70 357L23 448L42 369z" stroke="#ff4a00" fill="#ff4a00" style="animation-play-state:paused" ></path>
<path d="M42 369L23 448L152 476z" stroke="#ff5600" fill="#ff5600" style="animation-play-state:paused" ></path>
<path d="M1053 572L1130 444L1048 464z" stroke="#ffc400" fill="#ffc400" style="animation-play-state:paused" ></path>
<path d="M43 65L137 147L140 63z" stroke="#ff2b00" fill="#ff2b00" style="animation-play-state:paused" ></path>
<path d="M53 270L-70 357L42 369z" stroke="#ff4400" fill="#ff4400" style="animation-play-state:paused" ></path>
<path d="M1149 275L1037 256L1056 379z" stroke="#ff9d00" fill="#ff9d00" style="animation-play-state:paused" ></path>
<path d="M1130 444L1151 367L1056 379z" stroke="#ffb400" fill="#ffb400" style="animation-play-state:paused" ></path>
<path d="M1029 -55L954 76L1054 70z" stroke="#ff5d00" fill="#ff5d00" style="animation-play-state:paused" ></path>
<path d="M1029 -55L952 -131L949 -25z" stroke="#ff4500" fill="#ff4500" style="animation-play-state:paused" ></path>
<path d="M949 -25L952 -131L832 -45z" stroke="#ff4300" fill="#ff4300" style="animation-play-state:paused" ></path>
<path d="M1132 51L1029 -55L1054 70z" stroke="#ff5d00" fill="#ff5d00" style="animation-play-state:paused" ></path>
<path d="M1151 367L1149 275L1056 379z" stroke="#ffa800" fill="#ffa800" style="animation-play-state:paused" ></path>
<path d="M140 -33L43 65L140 63z" stroke="#ff2400" fill="#ff2400" style="animation-play-state:paused" ></path>
<path d="M1036 756L1049 672L948 669z" stroke="#ffda00" fill="#ffda00" style="animation-play-state:paused" ></path>
<path d="M1053 572L1156 575L1130 444z" stroke="#ffce00" fill="#ffce00" style="animation-play-state:paused" ></path>
<path d="M23 448L29 549L152 476z" stroke="#ff5b00" fill="#ff5b00" style="animation-play-state:paused" ></path>
<path d="M248 -129L155 -133L238 -47z" stroke="#ff1300" fill="#ff1300" style="animation-play-state:paused" ></path>
<path d="M140 -33L34 -51L43 65z" stroke="#ff1b00" fill="#ff1b00" style="animation-play-state:paused" ></path>
<path d="M327 -148L155 -133L248 -129z" stroke="#ff0d00" fill="#ff0d00" style="animation-play-state:paused" ></path>
<path d="M1119 140L1132 51L1054 70z" stroke="#ff6d00" fill="#ff6d00" style="animation-play-state:paused" ></path>
<path d="M1231 59L1132 51L1119 140z" stroke="#ff6f00" fill="#ff6f00" style="animation-play-state:paused" ></path>
<path d="M43 660L137 758L141 659z" stroke="#ff6b00" fill="#ff6b00" style="animation-play-state:paused" ></path>
<path d="M141 659L137 758L236 758z" stroke="#ff7500" fill="#ff7500" style="animation-play-state:paused" ></path>
<path d="M236 758L137 758L451 766z" stroke="#ff8300" fill="#ff8300" style="animation-play-state:paused" ></path>
<path d="M29 549L43 660L142 557z" stroke="#ff6100" fill="#ff6100" style="animation-play-state:paused" ></path>
<path d="M1129 649L1156 575L1053 572z" stroke="#ffda00" fill="#ffda00" style="animation-play-state:paused" ></path>
<path d="M1249 464L1228 350L1151 367z" stroke="#ffb900" fill="#ffb900" style="animation-play-state:paused" ></path>
<path d="M1151 367L1228 350L1149 275z" stroke="#ffa900" fill="#ffa900" style="animation-play-state:paused" ></path>
<path d="M-75 245L-70 357L53 270z" stroke="#ff3800" fill="#ff3800" style="animation-play-state:paused" ></path>
<path d="M23 448L-48 467L29 549z" stroke="#ff5400" fill="#ff5400" style="animation-play-state:paused" ></path>
<path d="M29 549L-61 570L43 660z" stroke="#ff5b00" fill="#ff5b00" style="animation-play-state:paused" ></path>
<path d="M-60 166L53 270L26 150z" stroke="#ff2f00" fill="#ff2f00" style="animation-play-state:paused" ></path>
<path d="M-70 357L-48 467L23 448z" stroke="#ff4a00" fill="#ff4a00" style="animation-play-state:paused" ></path>
<path d="M-42 68L26 150L43 65z" stroke="#ff2500" fill="#ff2500" style="animation-play-state:paused" ></path>
<path d="M-42 68L-60 166L26 150z" stroke="#ff2600" fill="#ff2600" style="animation-play-state:paused" ></path>
<path d="M932 749L1036 756L948 669z" stroke="#ffd700" fill="#ffd700" style="animation-play-state:paused" ></path>
<path d="M1049 672L1129 649L1053 572z" stroke="#ffdb00" fill="#ffdb00" style="animation-play-state:paused" ></path>
<path d="M835 758L1036 756L932 749z" stroke="#ffd400" fill="#ffd400" style="animation-play-state:paused" ></path>
<path d="M552 764L1036 756L835 758z" stroke="#ffc500" fill="#ffc500" style="animation-play-state:paused" ></path>
<path d="M1128 -46L1056 -124L1029 -55z" stroke="#ff4800" fill="#ff4800" style="animation-play-state:paused" ></path>
<path d="M1029 -55L1056 -124L952 -131z" stroke="#ff3e00" fill="#ff3e00" style="animation-play-state:paused" ></path>
<path d="M952 -131L1137 -142L835 -142z" stroke="#ff3200" fill="#ff3200" style="animation-play-state:paused" ></path>
<path d="M1128 747L1129 649L1049 672z" stroke="#ffe400" fill="#ffe400" style="animation-play-state:paused" ></path>
<path d="M1249 464L1151 367L1130 444z" stroke="#ffbe00" fill="#ffbe00" style="animation-play-state:paused" ></path>
<path d="M1149 275L1225 242L1119 140z" stroke="#ff8f00" fill="#ff8f00" style="animation-play-state:paused" ></path>
<path d="M-60 166L-75 245L53 270z" stroke="#ff3000" fill="#ff3000" style="animation-play-state:paused" ></path>
<path d="M1228 350L1225 242L1149 275z" stroke="#ffa100" fill="#ffa100" style="animation-play-state:paused" ></path>
<path d="M1132 51L1128 -46L1029 -55z" stroke="#ff5600" fill="#ff5600" style="animation-play-state:paused" ></path>
<path d="M41 -140L34 -51L140 -33z" stroke="#ff0a00" fill="#ff0a00" style="animation-play-state:paused" ></path>
<path d="M1229 -45L1128 -46L1132 51z" stroke="#ff5900" fill="#ff5900" style="animation-play-state:paused" ></path>
<path d="M34 -51L-42 68L43 65z" stroke="#ff1b00" fill="#ff1b00" style="animation-play-state:paused" ></path>
<path d="M-174 246L-70 357L-75 245z" stroke="#ff2f00" fill="#ff2f00" style="animation-play-state:paused" ></path>
<path d="M-143 369L-48 467L-70 357z" stroke="#ff4000" fill="#ff4000" style="animation-play-state:paused" ></path>
<path d="M-159 468L-61 570L-48 467z" stroke="#ff4a00" fill="#ff4a00" style="animation-play-state:paused" ></path>
<path d="M-48 467L-61 570L29 549z" stroke="#ff5400" fill="#ff5400" style="animation-play-state:paused" ></path>
<path d="M43 660L42 766L137 758z" stroke="#ff6800" fill="#ff6800" style="animation-play-state:paused" ></path>
<path d="M1327 252L1250 170L1225 242z" stroke="#ff9300" fill="#ff9300" style="animation-play-state:paused" ></path>
<path d="M1225 242L1250 170L1119 140z" stroke="#ff8900" fill="#ff8900" style="animation-play-state:paused" ></path>
<path d="M155 -133L41 -140L140 -33z" stroke="#ff0600" fill="#ff0600" style="animation-play-state:paused" ></path>
<path d="M34 -51L-76 -59L-42 68z" stroke="#ff0e00" fill="#ff0e00" style="animation-play-state:paused" ></path>
<path d="M327 -148L41 -140L155 -133z" stroke="#ff0100" fill="#ff0100" style="animation-play-state:paused" ></path>
<path d="M1156 575L1249 464L1130 444z" stroke="#ffcc00" fill="#ffcc00" style="animation-play-state:paused" ></path>
<path d="M1228 350L1321 348L1225 242z" stroke="#ffa900" fill="#ffa900" style="animation-play-state:paused" ></path>
<path d="M1238 561L1249 464L1156 575z" stroke="#ffd700" fill="#ffd700" style="animation-play-state:paused" ></path>
<path d="M-56 671L42 766L43 660z" stroke="#ff6000" fill="#ff6000" style="animation-play-state:paused" ></path>
<path d="M137 758L42 766L451 766z" stroke="#ff7b00" fill="#ff7b00" style="animation-play-state:paused" ></path>
<path d="M1250 170L1231 59L1119 140z" stroke="#ff7a00" fill="#ff7a00" style="animation-play-state:paused" ></path>
<path d="M1036 756L1128 747L1049 672z" stroke="#ffe300" fill="#ffe300" style="animation-play-state:paused" ></path>
<path d="M1238 653L1238 561L1156 575z" stroke="#ffe200" fill="#ffe200" style="animation-play-state:paused" ></path>
<path d="M1238 653L1156 575L1129 649z" stroke="#ffe400" fill="#ffe400" style="animation-play-state:paused" ></path>
<path d="M-173 650L-56 671L-61 570z" stroke="#ff5200" fill="#ff5200" style="animation-play-state:paused" ></path>
<path d="M-61 570L-56 671L43 660z" stroke="#ff5a00" fill="#ff5a00" style="animation-play-state:paused" ></path>
<path d="M1229 -45L1137 -142L1128 -46z" stroke="#ff4b00" fill="#ff4b00" style="animation-play-state:paused" ></path>
<path d="M1128 -46L1137 -142L1056 -124z" stroke="#ff4200" fill="#ff4200" style="animation-play-state:paused" ></path>
<path d="M1056 -124L1137 -142L952 -131z" stroke="#ff3700" fill="#ff3700" style="animation-play-state:paused" ></path>
<path d="M835 -142L1137 -142L327 -148z" stroke="#ff2b00" fill="#ff2b00" style="animation-play-state:paused" ></path>
<path d="M-146 169L-75 245L-60 166z" stroke="#ff2800" fill="#ff2800" style="animation-play-state:paused" ></path>
<path d="M-174 246L-143 369L-70 357z" stroke="#ff3100" fill="#ff3100" style="animation-play-state:paused" ></path>
<path d="M-147 67L-60 166L-42 68z" stroke="#ff1e00" fill="#ff1e00" style="animation-play-state:paused" ></path>
<path d="M-147 67L-146 169L-60 166z" stroke="#ff2000" fill="#ff2000" style="animation-play-state:paused" ></path>
<path d="M1128 747L1238 653L1129 649z" stroke="#ffeb00" fill="#ffeb00" style="animation-play-state:paused" ></path>
<path d="M1321 448L1228 350L1249 464z" stroke="#ffc200" fill="#ffc200" style="animation-play-state:paused" ></path>
<path d="M-240 371L-159 468L-143 369z" stroke="#ff3300" fill="#ff3300" style="animation-play-state:paused" ></path>
<path d="M-143 369L-159 468L-48 467z" stroke="#ff4100" fill="#ff4100" style="animation-play-state:paused" ></path>
<path d="M-146 169L-174 246L-75 245z" stroke="#ff2800" fill="#ff2800" style="animation-play-state:paused" ></path>
<path d="M-72 -148L-76 -59L34 -51z" stroke="#ff0000" fill="#ff0000" style="animation-play-state:paused" ></path>
<path d="M1321 448L1249 464L1355 572z" stroke="#ffd500" fill="#ffd500" style="animation-play-state:paused" ></path>
<path d="M1321 448L1321 348L1228 350z" stroke="#ffbb00" fill="#ffbb00" style="animation-play-state:paused" ></path>
<path d="M1250 170L1338 60L1231 59z" stroke="#ff7600" fill="#ff7600" style="animation-play-state:paused" ></path>
<path d="M1231 59L1229 -45L1132 51z" stroke="#ff6100" fill="#ff6100" style="animation-play-state:paused" ></path>
<path d="M1326 -55L1229 -45L1231 59z" stroke="#ff5c00" fill="#ff5c00" style="animation-play-state:paused" ></path>
<path d="M1321 348L1327 252L1225 242z" stroke="#ffa300" fill="#ffa300" style="animation-play-state:paused" ></path>
<path d="M1355 572L1249 464L1238 561z" stroke="#ffdb00" fill="#ffdb00" style="animation-play-state:paused" ></path>
<path d="M1439 253L1347 165L1327 252z" stroke="#ff9700" fill="#ff9700" style="animation-play-state:paused" ></path>
<path d="M-76 -59L-147 67L-42 68z" stroke="#ff1000" fill="#ff1000" style="animation-play-state:paused" ></path>
<path d="M-265 155L-247 271L-174 246z" stroke="#ff2100" fill="#ff2100" style="animation-play-state:paused" ></path>
<path d="M-163 757L-59 769L-56 671z" stroke="#ff5500" fill="#ff5500" style="animation-play-state:paused" ></path>
<path d="M-56 671L-59 769L42 766z" stroke="#ff5d00" fill="#ff5d00" style="animation-play-state:paused" ></path>
<path d="M42 766L-59 769L451 766z" stroke="#ff7200" fill="#ff7200" style="animation-play-state:paused" ></path>
<path d="M-250 472L-167 558L-159 468z" stroke="#ff3d00" fill="#ff3d00" style="animation-play-state:paused" ></path>
<path d="M-159 468L-167 558L-61 570z" stroke="#ff4800" fill="#ff4800" style="animation-play-state:paused" ></path>
<path d="M41 -140L-72 -148L34 -51z" stroke="#ff0000" fill="#ff0000" style="animation-play-state:paused" ></path>
<path d="M-76 -59L-163 -49L-147 67z" stroke="#ff0000" fill="#ff0000" style="animation-play-state:paused" ></path>
<path d="M327 -148L-72 -148L41 -140z" stroke="#ff0000" fill="#ff0000" style="animation-play-state:paused" ></path>
<path d="M1439 253L1327 252L1321 348z" stroke="#ffa600" fill="#ffa600" style="animation-play-state:paused" ></path>
<path d="M1327 252L1347 165L1250 170z" stroke="#ff8f00" fill="#ff8f00" style="animation-play-state:paused" ></path>
<path d="M1347 165L1338 60L1250 170z" stroke="#ff8000" fill="#ff8000" style="animation-play-state:paused" ></path>
<path d="M1128 747L1245 756L1238 653z" stroke="#fff300" fill="#fff300" style="animation-play-state:paused" ></path>
<path d="M1331 654L1355 572L1238 561z" stroke="#ffea00" fill="#ffea00" style="animation-play-state:paused" ></path>
<path d="M1036 756L1245 756L1128 747z" stroke="#ffed00" fill="#ffed00" style="animation-play-state:paused" ></path>
<path d="M1350 772L1245 756L1036 756z" stroke="#fff700" fill="#fff700" style="animation-play-state:paused" ></path>
<path d="M1350 772L1036 756L552 764z" stroke="#ffda00" fill="#ffda00" style="animation-play-state:paused" ></path>
<path d="M1326 -55L1255 -127L1229 -45z" stroke="#ff4e00" fill="#ff4e00" style="animation-play-state:paused" ></path>
<path d="M1229 -45L1255 -127L1137 -142z" stroke="#ff4600" fill="#ff4600" style="animation-play-state:paused" ></path>
<path d="M-167 558L-173 650L-61 570z" stroke="#ff4b00" fill="#ff4b00" style="animation-play-state:paused" ></path>
<path d="M-263 551L-173 650L-167 558z" stroke="#ff4200" fill="#ff4200" style="animation-play-state:paused" ></path>
<path d="M1331 654L1238 561L1238 653z" stroke="#ffec00" fill="#ffec00" style="animation-play-state:paused" ></path>
<path d="M1436 361L1439 253L1321 348z" stroke="#ffb000" fill="#ffb000" style="animation-play-state:paused" ></path>
<path d="M-247 271L-143 369L-174 246z" stroke="#ff2b00" fill="#ff2b00" style="animation-play-state:paused" ></path>
<path d="M-247 271L-240 371L-143 369z" stroke="#ff2c00" fill="#ff2c00" style="animation-play-state:paused" ></path>
<path d="M-145 -123L-163 -49L-76 -59z" stroke="#ff0000" fill="#ff0000" style="animation-play-state:paused" ></path>
<path d="M-265 155L-174 246L-146 169z" stroke="#ff2000" fill="#ff2000" style="animation-play-state:paused" ></path>
<path d="M-265 155L-146 169L-147 67z" stroke="#ff1900" fill="#ff1900" style="animation-play-state:paused" ></path>
<path d="M1245 756L1331 654L1238 653z" stroke="#fff700" fill="#fff700" style="animation-play-state:paused" ></path>
<path d="M1338 60L1326 -55L1231 59z" stroke="#ff6400" fill="#ff6400" style="animation-play-state:paused" ></path>
<path d="M1439 -39L1326 -55L1338 60z" stroke="#ff5e00" fill="#ff5e00" style="animation-play-state:paused" ></path>
<path d="M-263 551L-250 472L-240 371z" stroke="#ff3100" fill="#ff3100" style="animation-play-state:paused" ></path>
<path d="M-240 371L-250 472L-159 468z" stroke="#ff3200" fill="#ff3200" style="animation-play-state:paused" ></path>
<path d="M-72 -148L-145 -123L-76 -59z" stroke="#ff0000" fill="#ff0000" style="animation-play-state:paused" ></path>
<path d="M-277 53L-265 155L-147 67z" stroke="#ff0b00" fill="#ff0b00" style="animation-play-state:paused" ></path>
<path d="M-277 53L-147 67L-163 -49z" stroke="#ff0000" fill="#ff0000" style="animation-play-state:paused" ></path>
<path d="M-247 271L-263 551L-240 371z" stroke="#ff2e00" fill="#ff2e00" style="animation-play-state:paused" ></path>
<path d="M-253 673L-163 757L-173 650z" stroke="#ff4800" fill="#ff4800" style="animation-play-state:paused" ></path>
<path d="M-173 650L-163 757L-56 671z" stroke="#ff5000" fill="#ff5000" style="animation-play-state:paused" ></path>
<path d="M1436 361L1321 348L1321 448z" stroke="#ffbe00" fill="#ffbe00" style="animation-play-state:paused" ></path>
<path d="M1347 165L1425 140L1338 60z" stroke="#ff7f00" fill="#ff7f00" style="animation-play-state:paused" ></path>
<path d="M1437 452L1321 448L1422 548z" stroke="#ffd600" fill="#ffd600" style="animation-play-state:paused" ></path>
<path d="M1437 452L1436 361L1321 448z" stroke="#ffc800" fill="#ffc800" style="animation-play-state:paused" ></path>
<path d="M1439 253L1425 140L1347 165z" stroke="#ff8f00" fill="#ff8f00" style="animation-play-state:paused" ></path>
<path d="M1422 548L1321 448L1355 572z" stroke="#ffde00" fill="#ffde00" style="animation-play-state:paused" ></path>
<path d="M-265 155L-263 551L-247 271z" stroke="#ff2800" fill="#ff2800" style="animation-play-state:paused" ></path>
<path d="M-250 472L-263 551L-167 558z" stroke="#ff3a00" fill="#ff3a00" style="animation-play-state:paused" ></path>
<path d="M1447 662L1422 548L1355 572z" stroke="#fff100" fill="#fff100" style="animation-play-state:paused" ></path>
<path d="M1447 662L1355 572L1331 654z" stroke="#fff700" fill="#fff700" style="animation-play-state:paused" ></path>
<path d="M-266 -39L-277 53L-163 -49z" stroke="#ff0000" fill="#ff0000" style="animation-play-state:paused" ></path>
<path d="M-265 155L-277 53L-263 551z" stroke="#ff2100" fill="#ff2100" style="animation-play-state:paused" ></path>
<path d="M1439 -39L1351 -127L1326 -55z" stroke="#ff5100" fill="#ff5100" style="animation-play-state:paused" ></path>
<path d="M1326 -55L1351 -127L1255 -127z" stroke="#ff4900" fill="#ff4900" style="animation-play-state:paused" ></path>
<path d="M1255 -127L1351 -127L1137 -142z" stroke="#ff3f00" fill="#ff3f00" style="animation-play-state:paused" ></path>
<path d="M-263 551L-253 673L-173 650z" stroke="#ff4100" fill="#ff4100" style="animation-play-state:paused" ></path>
<path d="M1525 141L1448 69L1425 140z" stroke="#ff8000" fill="#ff8000" style="animation-play-state:paused" ></path>
<path d="M1425 140L1448 69L1338 60z" stroke="#ff7800" fill="#ff7800" style="animation-play-state:paused" ></path>
<path d="M1525 141L1425 140L1439 253z" stroke="#ff8e00" fill="#ff8e00" style="animation-play-state:paused" ></path>
<path d="M451 766L1350 772L552 764z" stroke="#ffc200" fill="#ffc200" style="animation-play-state:paused" ></path>
<path d="M1245 756L1350 772L1331 654z" stroke="#fffb00" fill="#fffb00" style="animation-play-state:paused" ></path>
<path d="M-59 769L1350 772L451 766z" stroke="#ffa800" fill="#ffa800" style="animation-play-state:paused" ></path>
<path d="M-267 -150L-266 -39L-163 -49z" stroke="#ff0000" fill="#ff0000" style="animation-play-state:paused" ></path>
<path d="M1448 69L1439 -39L1338 60z" stroke="#ff6800" fill="#ff6800" style="animation-play-state:paused" ></path>
<path d="M1426 752L1447 662L1331 654z" stroke="#fffb00" fill="#fffb00" style="animation-play-state:paused" ></path>
<path d="M1557 474L1553 376L1437 452z" stroke="#ffce00" fill="#ffce00" style="animation-play-state:paused" ></path>
<path d="M1553 376L1525 246L1436 361z" stroke="#ffb400" fill="#ffb400" style="animation-play-state:paused" ></path>
<path d="M1436 361L1525 246L1439 253z" stroke="#ffa900" fill="#ffa900" style="animation-play-state:paused" ></path>
<path d="M-163 757L-263 750L-59 769z" stroke="#ff4e00" fill="#ff4e00" style="animation-play-state:paused" ></path>
<path d="M-253 673L-263 750L-163 757z" stroke="#ff4500" fill="#ff4500" style="animation-play-state:paused" ></path>
<path d="M-263 551L-263 750L-253 673z" stroke="#ff3e00" fill="#ff3e00" style="animation-play-state:paused" ></path>
<path d="M-277 53L-263 750L-263 551z" stroke="#ff2f00" fill="#ff2f00" style="animation-play-state:paused" ></path>
<path d="M1553 376L1436 361L1437 452z" stroke="#ffc400" fill="#ffc400" style="animation-play-state:paused" ></path>
<path d="M1448 69L1554 -32L1439 -39z" stroke="#ff6200" fill="#ff6200" style="animation-play-state:paused" ></path>
<path d="M-72 -148L-267 -150L-145 -123z" stroke="#ff0000" fill="#ff0000" style="animation-play-state:paused" ></path>
<path d="M-145 -123L-267 -150L-163 -49z" stroke="#ff0000" fill="#ff0000" style="animation-play-state:paused" ></path>
<path d="M-266 -39L-267 -150L-277 53z" stroke="#ff0000" fill="#ff0000" style="animation-play-state:paused" ></path>
<path d="M327 -148L-267 -150L-72 -148z" stroke="#ff0000" fill="#ff0000" style="animation-play-state:paused" ></path>
<path d="M1350 772L1426 752L1331 654z" stroke="#fffb00" fill="#fffb00" style="animation-play-state:paused" ></path>
<path d="M1525 246L1525 141L1439 253z" stroke="#ff9700" fill="#ff9700" style="animation-play-state:paused" ></path>
<path d="M1557 474L1422 548L1552 569z" stroke="#ffe600" fill="#ffe600" style="animation-play-state:paused" ></path>
<path d="M1557 474L1437 452L1422 548z" stroke="#ffdb00" fill="#ffdb00" style="animation-play-state:paused" ></path>
<path d="M1525 246L1553 73L1525 141z" stroke="#ff8900" fill="#ff8900" style="animation-play-state:paused" ></path>
<path d="M1554 -32L1447 -135L1439 -39z" stroke="#ff5300" fill="#ff5300" style="animation-play-state:paused" ></path>
<path d="M1439 -39L1447 -135L1351 -127z" stroke="#ff4b00" fill="#ff4b00" style="animation-play-state:paused" ></path>
<path d="M1351 -127L1447 -135L1137 -142z" stroke="#ff4000" fill="#ff4000" style="animation-play-state:paused" ></path>
<path d="M1552 569L1422 548L1447 662z" stroke="#fff400" fill="#fff400" style="animation-play-state:paused" ></path>
<path d="M1553 376L1553 73L1525 246z" stroke="#ff9c00" fill="#ff9c00" style="animation-play-state:paused" ></path>
<path d="M1525 141L1553 73L1448 69z" stroke="#ff7b00" fill="#ff7b00" style="animation-play-state:paused" ></path>
<path d="M1557 474L1553 73L1553 376z" stroke="#ffb000" fill="#ffb000" style="animation-play-state:paused" ></path>
<path d="M1561 675L1552 569L1447 662z" stroke="#fffb00" fill="#fffb00" style="animation-play-state:paused" ></path>
<path d="M1553 73L1554 -32L1448 69z" stroke="#ff6c00" fill="#ff6c00" style="animation-play-state:paused" ></path>
<path d="M1350 772L1523 746L1426 752z" stroke="#fffc00" fill="#fffc00" style="animation-play-state:paused" ></path>
<path d="M1426 752L1523 746L1447 662z" stroke="#fffc00" fill="#fffc00" style="animation-play-state:paused" ></path>
<path d="M1523 746L1561 675L1447 662z" stroke="#fffc00" fill="#fffc00" style="animation-play-state:paused" ></path>
<path d="M1552 569L1561 675L1557 474z" stroke="#fff200" fill="#fff200" style="animation-play-state:paused" ></path>
<path d="M1557 474L1561 675L1553 73z" stroke="#ffc800" fill="#ffc800" style="animation-play-state:paused" ></path>
<path d="M1554 -32L1556 -134L1447 -135z" stroke="#ff4c00" fill="#ff4c00" style="animation-play-state:paused" ></path>
<path d="M1447 -135L1556 -134L1137 -142z" stroke="#ff4100" fill="#ff4100" style="animation-play-state:paused" ></path>
<path d="M1553 73L1556 -134L1554 -32z" stroke="#ff5c00" fill="#ff5c00" style="animation-play-state:paused" ></path></g>
<style type="text/css" style="animation-play-state:paused" >#bk-0.7711633903972233 path { stroke-width: 1 }</style></g></svg>