<?xml version="1.0" encoding="utf-8"?><svg xmlns="http://www.w3.org/2000/svg" xmlns:xlink="http://www.w3.org/1999/xlink" width="1280" height="658" preserveAspectRatio="xMidYMid" viewBox="0 0 1280 658" style="z-index:1;display:block;background-color:rgb(241, 242, 243);animation-play-state:paused" ><g transform="translate(640,329) scale(1,1) translate(-640,-329)" style="animation-play-state:paused" ><g id="bk-0.834485770232963" style="animation-play-state:paused" ><path d="M655 277L636 357L724 345z" stroke="#373f63" fill="#373f63" style="animation-play-state:paused" ></path>
<path d="M724 345L739 257L655 277z" stroke="#394166" fill="#394166" style="animation-play-state:paused" ></path>
<path d="M624 146L553 281L655 277z" stroke="#454f78" fill="#454f78" style="animation-play-state:paused" ></path>
<path d="M655 277L553 281L636 357z" stroke="#3d456b" fill="#3d456b" style="animation-play-state:paused" ></path>
<path d="M632 453L731 451L636 357z" stroke="#2e3557" fill="#2e3557" style="animation-play-state:paused" ></path>
<path d="M636 357L731 451L724 345z" stroke="#303759" fill="#303759" style="animation-play-state:paused" ></path>
<path d="M724 345L834 362L739 257z" stroke="#333a5d" fill="#333a5d" style="animation-play-state:paused" ></path>
<path d="M537 458L632 453L636 357z" stroke="#32395c" fill="#32395c" style="animation-play-state:paused" ></path>
<path d="M553 281L529 350L636 357z" stroke="#3d456b" fill="#3d456b" style="animation-play-state:paused" ></path>
<path d="M731 451L834 362L724 345z" stroke="#2c3254" fill="#2c3254" style="animation-play-state:paused" ></path>
<path d="M855 176L733 146L739 257z" stroke="#424b73" fill="#424b73" style="animation-play-state:paused" ></path>
<path d="M739 257L733 146L655 277z" stroke="#414a71" fill="#414a71" style="animation-play-state:paused" ></path>
<path d="M834 362L856 274L739 257z" stroke="#343b5e" fill="#343b5e" style="animation-play-state:paused" ></path>
<path d="M733 146L624 146L655 277z" stroke="#47527c" fill="#47527c" style="animation-play-state:paused" ></path>
<path d="M529 350L537 458L636 357z" stroke="#373f63" fill="#373f63" style="animation-play-state:paused" ></path>
<path d="M624 146L538 166L553 281z" stroke="#4b5682" fill="#4b5682" style="animation-play-state:paused" ></path>
<path d="M425 249L452 369L529 350z" stroke="#434d76" fill="#434d76" style="animation-play-state:paused" ></path>
<path d="M425 249L529 350L553 281z" stroke="#444e77" fill="#444e77" style="animation-play-state:paused" ></path>
<path d="M529 350L452 369L537 458z" stroke="#3b4368" fill="#3b4368" style="animation-play-state:paused" ></path>
<path d="M833 546L854 468L731 451z" stroke="#202544" fill="#202544" style="animation-play-state:paused" ></path>
<path d="M731 451L854 468L834 362z" stroke="#262b4b" fill="#262b4b" style="animation-play-state:paused" ></path>
<path d="M834 362L938 354L856 274z" stroke="#2d3355" fill="#2d3355" style="animation-play-state:paused" ></path>
<path d="M649 566L731 451L632 453z" stroke="#282e4e" fill="#282e4e" style="animation-play-state:paused" ></path>
<path d="M943 259L855 176L856 274z" stroke="#383f63" fill="#383f63" style="animation-play-state:paused" ></path>
<path d="M856 274L855 176L739 257z" stroke="#3b4368" fill="#3b4368" style="animation-play-state:paused" ></path>
<path d="M536 555L632 453L537 458z" stroke="#2f3557" fill="#2f3557" style="animation-play-state:paused" ></path>
<path d="M536 555L649 566L632 453z" stroke="#2a2f50" fill="#2a2f50" style="animation-play-state:paused" ></path>
<path d="M452 171L425 249L553 281z" stroke="#4c5884" fill="#4c5884" style="animation-play-state:paused" ></path>
<path d="M730 51L640 57L733 146z" stroke="#52608f" fill="#52608f" style="animation-play-state:paused" ></path>
<path d="M733 146L640 57L624 146z" stroke="#505d8b" fill="#505d8b" style="animation-play-state:paused" ></path>
<path d="M624 146L538 52L538 166z" stroke="#546292" fill="#546292" style="animation-play-state:paused" ></path>
<path d="M538 166L452 171L553 281z" stroke="#4d5985" fill="#4d5985" style="animation-play-state:paused" ></path>
<path d="M937 458L938 354L834 362z" stroke="#252a4a" fill="#252a4a" style="animation-play-state:paused" ></path>
<path d="M649 566L752 571L731 451z" stroke="#232747" fill="#232747" style="animation-play-state:paused" ></path>
<path d="M337 461L448 478L452 369z" stroke="#3d456b" fill="#3d456b" style="animation-play-state:paused" ></path>
<path d="M452 369L448 478L537 458z" stroke="#394065" fill="#394065" style="animation-play-state:paused" ></path>
<path d="M938 354L943 259L856 274z" stroke="#2f3658" fill="#2f3658" style="animation-play-state:paused" ></path>
<path d="M538 52L452 171L538 166z" stroke="#566495" fill="#566495" style="animation-play-state:paused" ></path>
<path d="M448 478L536 555L537 458z" stroke="#32395c" fill="#32395c" style="animation-play-state:paused" ></path>
<path d="M752 571L833 546L731 451z" stroke="#1f2442" fill="#1f2442" style="animation-play-state:paused" ></path>
<path d="M854 468L937 458L834 362z" stroke="#222746" fill="#222746" style="animation-play-state:paused" ></path>
<path d="M861 77L733 146L855 176z" stroke="#48527d" fill="#48527d" style="animation-play-state:paused" ></path>
<path d="M861 77L730 51L733 146z" stroke="#4f5b89" fill="#4f5b89" style="animation-play-state:paused" ></path>
<path d="M949 557L937 458L854 468z" stroke="#1a1e3b" fill="#1a1e3b" style="animation-play-state:paused" ></path>
<path d="M1027 251L960 172L943 259z" stroke="#353c60" fill="#353c60" style="animation-play-state:paused" ></path>
<path d="M648 -24L538 52L640 57z" stroke="#5d6ea2" fill="#5d6ea2" style="animation-play-state:paused" ></path>
<path d="M640 57L538 52L624 146z" stroke="#576696" fill="#576696" style="animation-play-state:paused" ></path>
<path d="M960 172L861 77L855 176z" stroke="#444d76" fill="#444d76" style="animation-play-state:paused" ></path>
<path d="M1027 251L943 259L938 354z" stroke="#2e3456" fill="#2e3456" style="animation-play-state:paused" ></path>
<path d="M943 259L960 172L855 176z" stroke="#3b4368" fill="#3b4368" style="animation-play-state:paused" ></path>
<path d="M536 555L634 654L649 566z" stroke="#252b4b" fill="#252b4b" style="animation-play-state:paused" ></path>
<path d="M649 566L634 654L752 571z" stroke="#202544" fill="#202544" style="animation-play-state:paused" ></path>
<path d="M839 659L949 557L833 546z" stroke="#181c38" fill="#181c38" style="animation-play-state:paused" ></path>
<path d="M340 558L441 560L448 478z" stroke="#363e62" fill="#363e62" style="animation-play-state:paused" ></path>
<path d="M448 478L441 560L536 555z" stroke="#32395c" fill="#32395c" style="animation-play-state:paused" ></path>
<path d="M536 555L540 652L634 654z" stroke="#262c4c" fill="#262c4c" style="animation-play-state:paused" ></path>
<path d="M323 142L343 260L425 249z" stroke="#546291" fill="#546291" style="animation-play-state:paused" ></path>
<path d="M425 249L335 357L452 369z" stroke="#47527c" fill="#47527c" style="animation-play-state:paused" ></path>
<path d="M323 142L425 249L452 171z" stroke="#556393" fill="#556393" style="animation-play-state:paused" ></path>
<path d="M343 260L335 357L425 249z" stroke="#4d5985" fill="#4d5985" style="animation-play-state:paused" ></path>
<path d="M754 -33L648 -24L730 51z" stroke="#5d6ea2" fill="#5d6ea2" style="animation-play-state:paused" ></path>
<path d="M730 51L648 -24L640 57z" stroke="#5b6b9d" fill="#5b6b9d" style="animation-play-state:paused" ></path>
<path d="M451 -34L432 61L538 52z" stroke="#5f76a9" fill="#5f76a9" style="animation-play-state:paused" ></path>
<path d="M538 52L432 61L452 171z" stroke="#5b6c9f" fill="#5b6c9f" style="animation-play-state:paused" ></path>
<path d="M842 -42L754 -33L861 77z" stroke="#59689a" fill="#59689a" style="animation-play-state:paused" ></path>
<path d="M861 77L754 -33L730 51z" stroke="#566595" fill="#566595" style="animation-play-state:paused" ></path>
<path d="M833 546L949 557L854 468z" stroke="#191d3a" fill="#191d3a" style="animation-play-state:paused" ></path>
<path d="M1044 357L1027 251L938 354z" stroke="#282e4f" fill="#282e4f" style="animation-play-state:paused" ></path>
<path d="M839 659L833 546L752 571z" stroke="#191d3a" fill="#191d3a" style="animation-play-state:paused" ></path>
<path d="M441 560L540 652L536 555z" stroke="#2d3354" fill="#2d3354" style="animation-play-state:paused" ></path>
<path d="M335 357L337 461L452 369z" stroke="#434c74" fill="#434c74" style="animation-play-state:paused" ></path>
<path d="M1044 357L938 354L937 458z" stroke="#222645" fill="#222645" style="animation-play-state:paused" ></path>
<path d="M960 172L955 64L861 77z" stroke="#47527c" fill="#47527c" style="animation-play-state:paused" ></path>
<path d="M736 759L760 675L634 654z" stroke="#1a1e3b" fill="#1a1e3b" style="animation-play-state:paused" ></path>
<path d="M634 654L760 675L752 571z" stroke="#1c203e" fill="#1c203e" style="animation-play-state:paused" ></path>
<path d="M1050 462L1044 357L937 458z" stroke="#1c203e" fill="#1c203e" style="animation-play-state:paused" ></path>
<path d="M1033 159L955 64L960 172z" stroke="#424b73" fill="#424b73" style="animation-play-state:paused" ></path>
<path d="M760 675L839 659L752 571z" stroke="#191d39" fill="#191d39" style="animation-play-state:paused" ></path>
<path d="M432 61L323 142L452 171z" stroke="#5c6c9f" fill="#5c6c9f" style="animation-play-state:paused" ></path>
<path d="M343 260L249 272L335 357z" stroke="#4f5c8a" fill="#4f5c8a" style="animation-play-state:paused" ></path>
<path d="M949 557L1050 462L937 458z" stroke="#181c39" fill="#181c39" style="animation-play-state:paused" ></path>
<path d="M1027 251L1033 159L960 172z" stroke="#394065" fill="#394065" style="animation-play-state:paused" ></path>
<path d="M1048 74L1033 159L1136 153z" stroke="#3f486f" fill="#3f486f" style="animation-play-state:paused" ></path>
<path d="M1033 159L1027 251L1125 246z" stroke="#333a5e" fill="#333a5e" style="animation-play-state:paused" ></path>
<path d="M638 -138L533 -54L648 -24z" stroke="#607fb0" fill="#607fb0" style="animation-play-state:paused" ></path>
<path d="M648 -24L533 -54L538 52z" stroke="#5f76a9" fill="#5f76a9" style="animation-play-state:paused" ></path>
<path d="M432 61L348 68L323 142z" stroke="#5f73a7" fill="#5f73a7" style="animation-play-state:paused" ></path>
<path d="M950 -28L842 -42L861 77z" stroke="#576596" fill="#576596" style="animation-play-state:paused" ></path>
<path d="M733 -144L638 -138L648 -24z" stroke="#6181b2" fill="#6181b2" style="animation-play-state:paused" ></path>
<path d="M950 -28L861 77L955 64z" stroke="#515e8c" fill="#515e8c" style="animation-play-state:paused" ></path>
<path d="M256 471L340 558L337 461z" stroke="#40486f" fill="#40486f" style="animation-play-state:paused" ></path>
<path d="M337 461L340 558L448 478z" stroke="#3b4368" fill="#3b4368" style="animation-play-state:paused" ></path>
<path d="M441 560L446 669L540 652z" stroke="#2d3355" fill="#2d3355" style="animation-play-state:paused" ></path>
<path d="M256 471L337 461L335 357z" stroke="#444e77" fill="#444e77" style="animation-play-state:paused" ></path>
<path d="M334 657L446 669L441 560z" stroke="#32385b" fill="#32385b" style="animation-play-state:paused" ></path>
<path d="M540 652L635 747L634 654z" stroke="#222645" fill="#222645" style="animation-play-state:paused" ></path>
<path d="M533 -54L451 -34L538 52z" stroke="#607aac" fill="#607aac" style="animation-play-state:paused" ></path>
<path d="M339 -41L348 68L432 61z" stroke="#607cae" fill="#607cae" style="animation-play-state:paused" ></path>
<path d="M244 160L343 260L323 142z" stroke="#5a6a9d" fill="#5a6a9d" style="animation-play-state:paused" ></path>
<path d="M244 160L249 272L343 260z" stroke="#576697" fill="#576697" style="animation-play-state:paused" ></path>
<path d="M553 772L635 747L540 652z" stroke="#222747" fill="#222747" style="animation-play-state:paused" ></path>
<path d="M760 675L837 754L839 659z" stroke="#181c37" fill="#181c37" style="animation-play-state:paused" ></path>
<path d="M635 747L736 759L634 654z" stroke="#1c203e" fill="#1c203e" style="animation-play-state:paused" ></path>
<path d="M839 659L947 666L949 557z" stroke="#171b35" fill="#171b35" style="animation-play-state:paused" ></path>
<path d="M949 557L1055 573L1050 462z" stroke="#171b36" fill="#171b36" style="animation-play-state:paused" ></path>
<path d="M837 754L947 666L839 659z" stroke="#171b35" fill="#171b35" style="animation-play-state:paused" ></path>
<path d="M1048 74L950 -28L955 64z" stroke="#4f5b89" fill="#4f5b89" style="animation-play-state:paused" ></path>
<path d="M249 272L225 344L335 357z" stroke="#4f5c8a" fill="#4f5c8a" style="animation-play-state:paused" ></path>
<path d="M225 344L256 471L335 357z" stroke="#4a5580" fill="#4a5580" style="animation-play-state:paused" ></path>
<path d="M1125 246L1027 251L1044 357z" stroke="#2b3052" fill="#2b3052" style="animation-play-state:paused" ></path>
<path d="M1033 159L1048 74L955 64z" stroke="#455079" fill="#455079" style="animation-play-state:paused" ></path>
<path d="M947 666L1055 573L949 557z" stroke="#171a34" fill="#171a34" style="animation-play-state:paused" ></path>
<path d="M1144 364L1125 246L1044 357z" stroke="#242949" fill="#242949" style="animation-play-state:paused" ></path>
<path d="M1144 364L1044 357L1050 462z" stroke="#1c213f" fill="#1c213f" style="animation-play-state:paused" ></path>
<path d="M733 -144L754 -33L825 -152z" stroke="#607eaf" fill="#607eaf" style="animation-play-state:paused" ></path>
<path d="M733 -144L648 -24L754 -33z" stroke="#5f79ab" fill="#5f79ab" style="animation-play-state:paused" ></path>
<path d="M533 -54L423 -151L451 -34z" stroke="#6287b7" fill="#6287b7" style="animation-play-state:paused" ></path>
<path d="M228 50L244 160L323 142z" stroke="#5f76a9" fill="#5f76a9" style="animation-play-state:paused" ></path>
<path d="M249 272L144 268L225 344z" stroke="#566495" fill="#566495" style="animation-play-state:paused" ></path>
<path d="M553 772L837 754L736 759z" stroke="#191d3a" fill="#191d3a" style="animation-play-state:paused" ></path>
<path d="M736 759L837 754L760 675z" stroke="#181c37" fill="#181c37" style="animation-play-state:paused" ></path>
<path d="M1139 461L1144 364L1050 462z" stroke="#191d39" fill="#191d39" style="animation-play-state:paused" ></path>
<path d="M434 751L540 652L446 669z" stroke="#2b3052" fill="#2b3052" style="animation-play-state:paused" ></path>
<path d="M434 751L553 772L540 652z" stroke="#272d4d" fill="#272d4d" style="animation-play-state:paused" ></path>
<path d="M635 747L553 772L736 759z" stroke="#1d213f" fill="#1d213f" style="animation-play-state:paused" ></path>
<path d="M825 -152L754 -33L842 -42z" stroke="#5f76a9" fill="#5f76a9" style="animation-play-state:paused" ></path>
<path d="M253 677L334 657L340 558z" stroke="#394065" fill="#394065" style="animation-play-state:paused" ></path>
<path d="M340 558L334 657L441 560z" stroke="#363d61" fill="#363d61" style="animation-play-state:paused" ></path>
<path d="M638 -138L539 -142L533 -54z" stroke="#6287b7" fill="#6287b7" style="animation-play-state:paused" ></path>
<path d="M451 -34L339 -41L432 61z" stroke="#607fb0" fill="#607fb0" style="animation-play-state:paused" ></path>
<path d="M348 68L228 50L323 142z" stroke="#5f78ab" fill="#5f78ab" style="animation-play-state:paused" ></path>
<path d="M733 -144L539 -142L638 -138z" stroke="#6289b8" fill="#6289b8" style="animation-play-state:paused" ></path>
<path d="M1133 551L1139 461L1050 462z" stroke="#171b36" fill="#171b36" style="animation-play-state:paused" ></path>
<path d="M353 -118L339 -41L451 -34z" stroke="#638ab8" fill="#638ab8" style="animation-play-state:paused" ></path>
<path d="M1223 245L1136 153L1125 246z" stroke="#31385a" fill="#31385a" style="animation-play-state:paused" ></path>
<path d="M1125 246L1136 153L1033 159z" stroke="#373e62" fill="#373e62" style="animation-play-state:paused" ></path>
<path d="M334 657L434 751L446 669z" stroke="#303659" fill="#303659" style="animation-play-state:paused" ></path>
<path d="M930 -151L825 -152L842 -42z" stroke="#607bad" fill="#607bad" style="animation-play-state:paused" ></path>
<path d="M733 -144L423 -151L539 -142z" stroke="#638dbb" fill="#638dbb" style="animation-play-state:paused" ></path>
<path d="M256 471L228 543L340 558z" stroke="#404a71" fill="#404a71" style="animation-play-state:paused" ></path>
<path d="M334 657L348 764L434 751z" stroke="#31385b" fill="#31385b" style="animation-play-state:paused" ></path>
<path d="M119 443L228 543L256 471z" stroke="#48537d" fill="#48537d" style="animation-play-state:paused" ></path>
<path d="M1147 671L1133 551L1055 573z" stroke="#151930" fill="#151930" style="animation-play-state:paused" ></path>
<path d="M1055 573L1133 551L1050 462z" stroke="#171b34" fill="#171b34" style="animation-play-state:paused" ></path>
<path d="M1053 671L1055 573L947 666z" stroke="#161932" fill="#161932" style="animation-play-state:paused" ></path>
<path d="M1048 74L1059 -28L950 -28z" stroke="#52608e" fill="#52608e" style="animation-play-state:paused" ></path>
<path d="M950 -28L930 -151L842 -42z" stroke="#5e72a6" fill="#5e72a6" style="animation-play-state:paused" ></path>
<path d="M1138 55L1059 -28L1048 74z" stroke="#4d5985" fill="#4d5985" style="animation-play-state:paused" ></path>
<path d="M946 761L1053 671L947 666z" stroke="#161931" fill="#161931" style="animation-play-state:paused" ></path>
<path d="M1060 780L946 761L837 754z" stroke="#161931" fill="#161931" style="animation-play-state:paused" ></path>
<path d="M837 754L946 761L947 666z" stroke="#161a33" fill="#161a33" style="animation-play-state:paused" ></path>
<path d="M339 -41L228 50L348 68z" stroke="#6181b2" fill="#6181b2" style="animation-play-state:paused" ></path>
<path d="M244 160L144 268L249 272z" stroke="#5b6b9e" fill="#5b6b9e" style="animation-play-state:paused" ></path>
<path d="M1136 153L1138 55L1048 74z" stroke="#434d76" fill="#434d76" style="animation-play-state:paused" ></path>
<path d="M1229 45L1138 55L1136 153z" stroke="#434d76" fill="#434d76" style="animation-play-state:paused" ></path>
<path d="M825 -152L423 -151L733 -144z" stroke="#6389b8" fill="#6389b8" style="animation-play-state:paused" ></path>
<path d="M539 -142L423 -151L533 -54z" stroke="#638cba" fill="#638cba" style="animation-play-state:paused" ></path>
<path d="M339 -41L232 -49L228 50z" stroke="#6289b8" fill="#6289b8" style="animation-play-state:paused" ></path>
<path d="M138 157L144 268L244 160z" stroke="#5e73a6" fill="#5e73a6" style="animation-play-state:paused" ></path>
<path d="M225 344L119 443L256 471z" stroke="#4c5885" fill="#4c5885" style="animation-play-state:paused" ></path>
<path d="M144 268L142 364L225 344z" stroke="#566494" fill="#566494" style="animation-play-state:paused" ></path>
<path d="M1044 -136L930 -151L950 -28z" stroke="#5f75a8" fill="#5f75a8" style="animation-play-state:paused" ></path>
<path d="M825 -152L930 -151L423 -151z" stroke="#6287b6" fill="#6287b6" style="animation-play-state:paused" ></path>
<path d="M423 -151L353 -118L451 -34z" stroke="#648ebb" fill="#648ebb" style="animation-play-state:paused" ></path>
<path d="M147 568L253 677L228 543z" stroke="#424b73" fill="#424b73" style="animation-play-state:paused" ></path>
<path d="M228 543L253 677L340 558z" stroke="#3d456b" fill="#3d456b" style="animation-play-state:paused" ></path>
<path d="M253 677L348 764L334 657z" stroke="#363e62" fill="#363e62" style="animation-play-state:paused" ></path>
<path d="M434 751L348 764L553 772z" stroke="#2b3153" fill="#2b3153" style="animation-play-state:paused" ></path>
<path d="M1242 365L1223 245L1144 364z" stroke="#212645" fill="#212645" style="animation-play-state:paused" ></path>
<path d="M1144 364L1223 245L1125 246z" stroke="#272d4d" fill="#272d4d" style="animation-play-state:paused" ></path>
<path d="M1227 443L1144 364L1139 461z" stroke="#181c38" fill="#181c38" style="animation-play-state:paused" ></path>
<path d="M1246 562L1227 443L1133 551z" stroke="#161a32" fill="#161a32" style="animation-play-state:paused" ></path>
<path d="M1133 551L1227 443L1139 461z" stroke="#171b35" fill="#171b35" style="animation-play-state:paused" ></path>
<path d="M154 71L138 157L244 160z" stroke="#607bad" fill="#607bad" style="animation-play-state:paused" ></path>
<path d="M49 369L119 443L142 364z" stroke="#556393" fill="#556393" style="animation-play-state:paused" ></path>
<path d="M154 71L244 160L228 50z" stroke="#607daf" fill="#607daf" style="animation-play-state:paused" ></path>
<path d="M49 369L142 364L144 268z" stroke="#59689a" fill="#59689a" style="animation-play-state:paused" ></path>
<path d="M142 364L119 443L225 344z" stroke="#515f8d" fill="#515f8d" style="animation-play-state:paused" ></path>
<path d="M1227 443L1242 365L1144 364z" stroke="#191d3a" fill="#191d3a" style="animation-play-state:paused" ></path>
<path d="M133 -55L154 71L228 50z" stroke="#638ab9" fill="#638ab9" style="animation-play-state:paused" ></path>
<path d="M353 -118L232 -49L339 -41z" stroke="#648fbc" fill="#648fbc" style="animation-play-state:paused" ></path>
<path d="M119 443L147 568L228 543z" stroke="#49547e" fill="#49547e" style="animation-play-state:paused" ></path>
<path d="M1141 763L1147 671L1053 671z" stroke="#14172d" fill="#14172d" style="animation-play-state:paused" ></path>
<path d="M1053 671L1147 671L1055 573z" stroke="#15182f" fill="#15182f" style="animation-play-state:paused" ></path>
<path d="M1141 -41L1044 -136L1059 -28z" stroke="#5b6b9e" fill="#5b6b9e" style="animation-play-state:paused" ></path>
<path d="M1059 -28L1044 -136L950 -28z" stroke="#5c6ca0" fill="#5c6ca0" style="animation-play-state:paused" ></path>
<path d="M1229 45L1141 -41L1138 55z" stroke="#4c5985" fill="#4c5985" style="animation-play-state:paused" ></path>
<path d="M1138 55L1141 -41L1059 -28z" stroke="#515f8d" fill="#515f8d" style="animation-play-state:paused" ></path>
<path d="M946 761L1060 780L1053 671z" stroke="#15182f" fill="#15182f" style="animation-play-state:paused" ></path>
<path d="M553 772L1060 780L837 754z" stroke="#171b36" fill="#171b36" style="animation-play-state:paused" ></path>
<path d="M1331 242L1258 176L1223 245z" stroke="#2d3456" fill="#2d3456" style="animation-play-state:paused" ></path>
<path d="M1223 245L1258 176L1136 153z" stroke="#333a5d" fill="#333a5d" style="animation-play-state:paused" ></path>
<path d="M1258 176L1229 45L1136 153z" stroke="#3d456b" fill="#3d456b" style="animation-play-state:paused" ></path>
<path d="M162 673L249 775L253 677z" stroke="#3d466b" fill="#3d466b" style="animation-play-state:paused" ></path>
<path d="M253 677L249 775L348 764z" stroke="#383f64" fill="#383f64" style="animation-play-state:paused" ></path>
<path d="M348 764L249 775L553 772z" stroke="#303659" fill="#303659" style="animation-play-state:paused" ></path>
<path d="M1251 668L1246 562L1147 671z" stroke="#14172c" fill="#14172c" style="animation-play-state:paused" ></path>
<path d="M1147 671L1246 562L1133 551z" stroke="#15182f" fill="#15182f" style="animation-play-state:paused" ></path>
<path d="M1328 351L1331 242L1242 365z" stroke="#1f2442" fill="#1f2442" style="animation-play-state:paused" ></path>
<path d="M1242 365L1331 242L1223 245z" stroke="#252a4a" fill="#252a4a" style="animation-play-state:paused" ></path>
<path d="M36 249L49 369L144 268z" stroke="#5e6fa3" fill="#5e6fa3" style="animation-play-state:paused" ></path>
<path d="M119 443L51 561L147 568z" stroke="#4c5885" fill="#4c5885" style="animation-play-state:paused" ></path>
<path d="M36 249L144 268L138 157z" stroke="#5f75a8" fill="#5f75a8" style="animation-play-state:paused" ></path>
<path d="M22 639L162 673L147 568z" stroke="#48537d" fill="#48537d" style="animation-play-state:paused" ></path>
<path d="M147 568L162 673L253 677z" stroke="#424b73" fill="#424b73" style="animation-play-state:paused" ></path>
<path d="M38 158L138 157L34 55z" stroke="#6184b4" fill="#6184b4" style="animation-play-state:paused" ></path>
<path d="M38 158L36 249L138 157z" stroke="#607cae" fill="#607cae" style="animation-play-state:paused" ></path>
<path d="M1060 780L1141 763L1053 671z" stroke="#14172d" fill="#14172d" style="animation-play-state:paused" ></path>
<path d="M353 -118L226 -151L232 -49z" stroke="#6697c1" fill="#6697c1" style="animation-play-state:paused" ></path>
<path d="M232 -49L133 -55L228 50z" stroke="#648ebb" fill="#648ebb" style="animation-play-state:paused" ></path>
<path d="M423 -151L226 -151L353 -118z" stroke="#6798c3" fill="#6798c3" style="animation-play-state:paused" ></path>
<path d="M930 -151L226 -151L423 -151z" stroke="#6490bd" fill="#6490bd" style="animation-play-state:paused" ></path>
<path d="M1227 -53L1155 -133L1141 -41z" stroke="#5a6a9c" fill="#5a6a9c" style="animation-play-state:paused" ></path>
<path d="M1141 -41L1155 -133L1044 -136z" stroke="#5e71a5" fill="#5e71a5" style="animation-play-state:paused" ></path>
<path d="M1044 -136L1222 -154L930 -151z" stroke="#607aac" fill="#607aac" style="animation-play-state:paused" ></path>
<path d="M1328 351L1242 365L1337 462z" stroke="#181c38" fill="#181c38" style="animation-play-state:paused" ></path>
<path d="M1258 176L1331 149L1229 45z" stroke="#3b4469" fill="#3b4469" style="animation-play-state:paused" ></path>
<path d="M1229 45L1227 -53L1141 -41z" stroke="#515e8d" fill="#515e8d" style="animation-play-state:paused" ></path>
<path d="M1337 462L1242 365L1227 443z" stroke="#181c37" fill="#181c37" style="animation-play-state:paused" ></path>
<path d="M-52 366L19 440L49 369z" stroke="#5c6c9f" fill="#5c6c9f" style="animation-play-state:paused" ></path>
<path d="M49 369L19 440L119 443z" stroke="#566495" fill="#566495" style="animation-play-state:paused" ></path>
<path d="M34 55L138 157L154 71z" stroke="#6184b4" fill="#6184b4" style="animation-play-state:paused" ></path>
<path d="M36 249L-52 366L49 369z" stroke="#5e71a5" fill="#5e71a5" style="animation-play-state:paused" ></path>
<path d="M138 -138L133 -55L232 -49z" stroke="#6799c3" fill="#6799c3" style="animation-play-state:paused" ></path>
<path d="M1358 -28L1227 -53L1229 45z" stroke="#4f5c8a" fill="#4f5c8a" style="animation-play-state:paused" ></path>
<path d="M1246 766L1251 668L1147 671z" stroke="#131629" fill="#131629" style="animation-play-state:paused" ></path>
<path d="M1246 562L1337 462L1227 443z" stroke="#161a33" fill="#161a33" style="animation-play-state:paused" ></path>
<path d="M19 440L51 561L119 443z" stroke="#525f8e" fill="#525f8e" style="animation-play-state:paused" ></path>
<path d="M1352 571L1337 462L1246 562z" stroke="#15182f" fill="#15182f" style="animation-play-state:paused" ></path>
<path d="M1431 149L1331 149L1331 242z" stroke="#32385b" fill="#32385b" style="animation-play-state:paused" ></path>
<path d="M1331 242L1331 149L1258 176z" stroke="#31385b" fill="#31385b" style="animation-play-state:paused" ></path>
<path d="M1345 58L1331 149L1431 149z" stroke="#3b4367" fill="#3b4367" style="animation-play-state:paused" ></path>
<path d="M133 -55L34 55L154 71z" stroke="#648ebc" fill="#648ebc" style="animation-play-state:paused" ></path>
<path d="M22 639L124 751L162 673z" stroke="#47517b" fill="#47517b" style="animation-play-state:paused" ></path>
<path d="M162 673L124 751L249 775z" stroke="#404970" fill="#404970" style="animation-play-state:paused" ></path>
<path d="M226 -151L138 -138L232 -49z" stroke="#689cc5" fill="#689cc5" style="animation-play-state:paused" ></path>
<path d="M133 -55L40 -41L34 55z" stroke="#6696c1" fill="#6696c1" style="animation-play-state:paused" ></path>
<path d="M1358 -28L1345 58L1432 52z" stroke="#48537d" fill="#48537d" style="animation-play-state:paused" ></path>
<path d="M1331 149L1345 58L1229 45z" stroke="#414a71" fill="#414a71" style="animation-play-state:paused" ></path>
<path d="M1141 763L1246 766L1147 671z" stroke="#13162a" fill="#13162a" style="animation-play-state:paused" ></path>
<path d="M1330 657L1352 571L1246 562z" stroke="#14172c" fill="#14172c" style="animation-play-state:paused" ></path>
<path d="M1060 780L1246 766L1141 763z" stroke="#13162a" fill="#13162a" style="animation-play-state:paused" ></path>
<path d="M1330 657L1246 562L1251 668z" stroke="#13162b" fill="#13162b" style="animation-play-state:paused" ></path>
<path d="M1337 462L1443 362L1328 351z" stroke="#181c38" fill="#181c38" style="animation-play-state:paused" ></path>
<path d="M49 -127L40 -41L133 -55z" stroke="#699fc7" fill="#699fc7" style="animation-play-state:paused" ></path>
<path d="M19 440L-44 572L51 561z" stroke="#536191" fill="#536191" style="animation-play-state:paused" ></path>
<path d="M51 561L22 639L147 568z" stroke="#4c5884" fill="#4c5884" style="animation-play-state:paused" ></path>
<path d="M-64 255L-52 366L36 249z" stroke="#5f78ab" fill="#5f78ab" style="animation-play-state:paused" ></path>
<path d="M-56 170L36 249L38 158z" stroke="#6180b1" fill="#6180b1" style="animation-play-state:paused" ></path>
<path d="M-56 170L38 158L-47 65z" stroke="#638ab8" fill="#638ab8" style="animation-play-state:paused" ></path>
<path d="M-44 572L22 639L51 561z" stroke="#515e8c" fill="#515e8c" style="animation-play-state:paused" ></path>
<path d="M1339 -149L1222 -154L1227 -53z" stroke="#5e70a4" fill="#5e70a4" style="animation-play-state:paused" ></path>
<path d="M1227 -53L1222 -154L1155 -133z" stroke="#5e71a4" fill="#5e71a4" style="animation-play-state:paused" ></path>
<path d="M1155 -133L1222 -154L1044 -136z" stroke="#5f77aa" fill="#5f77aa" style="animation-play-state:paused" ></path>
<path d="M1337 755L1330 657L1251 668z" stroke="#121527" fill="#121527" style="animation-play-state:paused" ></path>
<path d="M-47 65L38 158L34 55z" stroke="#638cba" fill="#638cba" style="animation-play-state:paused" ></path>
<path d="M-56 170L-64 255L36 249z" stroke="#607fb0" fill="#607fb0" style="animation-play-state:paused" ></path>
<path d="M-159 368L-67 450L-52 366z" stroke="#5f74a7" fill="#5f74a7" style="animation-play-state:paused" ></path>
<path d="M-52 366L-67 450L19 440z" stroke="#5c6da0" fill="#5c6da0" style="animation-play-state:paused" ></path>
<path d="M1345 58L1358 -28L1229 45z" stroke="#49547f" fill="#49547f" style="animation-play-state:paused" ></path>
<path d="M1455 276L1331 242L1328 351z" stroke="#222746" fill="#222746" style="animation-play-state:paused" ></path>
<path d="M-67 450L-44 572L19 440z" stroke="#586799" fill="#586799" style="animation-play-state:paused" ></path>
<path d="M22 639L45 768L124 751z" stroke="#49547f" fill="#49547f" style="animation-play-state:paused" ></path>
<path d="M1432 544L1337 462L1352 571z" stroke="#15182f" fill="#15182f" style="animation-play-state:paused" ></path>
<path d="M1451 467L1443 362L1337 462z" stroke="#171b35" fill="#171b35" style="animation-play-state:paused" ></path>
<path d="M-172 243L-159 368L-64 255z" stroke="#6181b2" fill="#6181b2" style="animation-play-state:paused" ></path>
<path d="M40 -41L-47 65L34 55z" stroke="#6695c0" fill="#6695c0" style="animation-play-state:paused" ></path>
<path d="M-47 681L45 768L22 639z" stroke="#4e5a87" fill="#4e5a87" style="animation-play-state:paused" ></path>
<path d="M124 751L45 768L249 775z" stroke="#434c74" fill="#434c74" style="animation-play-state:paused" ></path>
<path d="M249 775L-43 771L553 772z" stroke="#3a4266" fill="#3a4266" style="animation-play-state:paused" ></path>
<path d="M1455 276L1431 149L1331 242z" stroke="#2b3152" fill="#2b3152" style="animation-play-state:paused" ></path>
<path d="M138 -138L49 -127L133 -55z" stroke="#6ba3c9" fill="#6ba3c9" style="animation-play-state:paused" ></path>
<path d="M40 -41L-72 -60L-47 65z" stroke="#689cc5" fill="#689cc5" style="animation-play-state:paused" ></path>
<path d="M-53 -137L49 -127L138 -138z" stroke="#71aed0" fill="#71aed0" style="animation-play-state:paused" ></path>
<path d="M1443 362L1455 276L1328 351z" stroke="#1c203e" fill="#1c203e" style="animation-play-state:paused" ></path>
<path d="M1430 649L1432 544L1352 571z" stroke="#13162a" fill="#13162a" style="animation-play-state:paused" ></path>
<path d="M1530 357L1529 246L1455 276z" stroke="#202443" fill="#202443" style="animation-play-state:paused" ></path>
<path d="M1430 649L1352 571L1330 657z" stroke="#131629" fill="#131629" style="animation-play-state:paused" ></path>
<path d="M1246 766L1337 755L1251 668z" stroke="#121527" fill="#121527" style="animation-play-state:paused" ></path>
<path d="M1432 544L1451 467L1337 462z" stroke="#151931" fill="#151931" style="animation-play-state:paused" ></path>
<path d="M1443 -32L1432 52L1530 42z" stroke="#48537e" fill="#48537e" style="animation-play-state:paused" ></path>
<path d="M1431 149L1432 52L1345 58z" stroke="#3f486f" fill="#3f486f" style="animation-play-state:paused" ></path>
<path d="M-44 572L-47 681L22 639z" stroke="#525f8e" fill="#525f8e" style="animation-play-state:paused" ></path>
<path d="M-158 662L-47 681L-44 572z" stroke="#566495" fill="#566495" style="animation-play-state:paused" ></path>
<path d="M1444 -132L1339 -149L1358 -28z" stroke="#5b6c9e" fill="#5b6c9e" style="animation-play-state:paused" ></path>
<path d="M1358 -28L1339 -149L1227 -53z" stroke="#586899" fill="#586899" style="animation-play-state:paused" ></path>
<path d="M1337 755L1430 649L1330 657z" stroke="#121426" fill="#121426" style="animation-play-state:paused" ></path>
<path d="M1530 549L1540 470L1451 467z" stroke="#15182f" fill="#15182f" style="animation-play-state:paused" ></path>
<path d="M-64 255L-159 368L-52 366z" stroke="#607aac" fill="#607aac" style="animation-play-state:paused" ></path>
<path d="M-67 450L-170 548L-44 572z" stroke="#5b6b9e" fill="#5b6b9e" style="animation-play-state:paused" ></path>
<path d="M-172 243L-64 255L-56 170z" stroke="#6285b5" fill="#6285b5" style="animation-play-state:paused" ></path>
<path d="M-53 -137L-72 -60L40 -41z" stroke="#6eaace" fill="#6eaace" style="animation-play-state:paused" ></path>
<path d="M-177 142L-172 243L-56 170z" stroke="#638cba" fill="#638cba" style="animation-play-state:paused" ></path>
<path d="M1432 52L1443 -32L1358 -28z" stroke="#4c5884" fill="#4c5884" style="animation-play-state:paused" ></path>
<path d="M1530 42L1432 52L1431 149z" stroke="#3f486f" fill="#3f486f" style="animation-play-state:paused" ></path>
<path d="M-177 142L-56 170L-47 65z" stroke="#6490bd" fill="#6490bd" style="animation-play-state:paused" ></path>
<path d="M-267 447L-171 455L-159 368z" stroke="#607cae" fill="#607cae" style="animation-play-state:paused" ></path>
<path d="M-159 368L-171 455L-67 450z" stroke="#5f75a9" fill="#5f75a9" style="animation-play-state:paused" ></path>
<path d="M-151 773L-43 771L-47 681z" stroke="#546291" fill="#546291" style="animation-play-state:paused" ></path>
<path d="M-47 681L-43 771L45 768z" stroke="#4f5b89" fill="#4f5b89" style="animation-play-state:paused" ></path>
<path d="M45 768L-43 771L249 775z" stroke="#47517b" fill="#47517b" style="animation-play-state:paused" ></path>
<path d="M1530 357L1455 276L1443 362z" stroke="#1b1f3c" fill="#1b1f3c" style="animation-play-state:paused" ></path>
<path d="M1455 276L1529 246L1431 149z" stroke="#2a3051" fill="#2a3051" style="animation-play-state:paused" ></path>
<path d="M1530 357L1443 362L1451 467z" stroke="#181b36" fill="#181b36" style="animation-play-state:paused" ></path>
<path d="M1540 470L1530 357L1451 467z" stroke="#171a34" fill="#171a34" style="animation-play-state:paused" ></path>
<path d="M49 -127L-53 -137L40 -41z" stroke="#6faace" fill="#6faace" style="animation-play-state:paused" ></path>
<path d="M-174 45L-177 142L-47 65z" stroke="#6798c2" fill="#6798c2" style="animation-play-state:paused" ></path>
<path d="M226 -151L-53 -137L138 -138z" stroke="#6faace" fill="#6faace" style="animation-play-state:paused" ></path>
<path d="M-174 45L-47 65L-72 -60z" stroke="#699ec7" fill="#699ec7" style="animation-play-state:paused" ></path>
<path d="M-250 571L-170 548L-267 447z" stroke="#5f78ab" fill="#5f78ab" style="animation-play-state:paused" ></path>
<path d="M-171 455L-170 548L-67 450z" stroke="#5e72a5" fill="#5e72a5" style="animation-play-state:paused" ></path>
<path d="M1540 470L1539 149L1529 246z" stroke="#202544" fill="#202544" style="animation-play-state:paused" ></path>
<path d="M1529 246L1539 149L1431 149z" stroke="#303759" fill="#303759" style="animation-play-state:paused" ></path>
<path d="M1337 755L1444 762L1430 649z" stroke="#111323" fill="#111323" style="animation-play-state:paused" ></path>
<path d="M1530 549L1451 467L1432 544z" stroke="#14182e" fill="#14182e" style="animation-play-state:paused" ></path>
<path d="M1246 766L1444 762L1337 755z" stroke="#111324" fill="#111324" style="animation-play-state:paused" ></path>
<path d="M1537 763L1444 762L1246 766z" stroke="#101221" fill="#101221" style="animation-play-state:paused" ></path>
<path d="M1530 549L1432 544L1430 649z" stroke="#13162a" fill="#13162a" style="animation-play-state:paused" ></path>
<path d="M1530 357L1540 470L1529 246z" stroke="#191c39" fill="#191c39" style="animation-play-state:paused" ></path>
<path d="M1534 658L1530 549L1430 649z" stroke="#121527" fill="#121527" style="animation-play-state:paused" ></path>
<path d="M-177 142L-242 176L-172 243z" stroke="#6491be" fill="#6491be" style="animation-play-state:paused" ></path>
<path d="M-160 -33L-174 45L-72 -60z" stroke="#6ea8cd" fill="#6ea8cd" style="animation-play-state:paused" ></path>
<path d="M1539 149L1530 42L1431 149z" stroke="#3a4267" fill="#3a4267" style="animation-play-state:paused" ></path>
<path d="M1536 -47L1444 -132L1443 -32z" stroke="#566495" fill="#566495" style="animation-play-state:paused" ></path>
<path d="M1443 -32L1444 -132L1358 -28z" stroke="#556494" fill="#556494" style="animation-play-state:paused" ></path>
<path d="M-170 548L-158 662L-44 572z" stroke="#5a6a9d" fill="#5a6a9d" style="animation-play-state:paused" ></path>
<path d="M-147 -132L-160 -33L-72 -60z" stroke="#73b2d3" fill="#73b2d3" style="animation-play-state:paused" ></path>
<path d="M1444 762L1534 658L1430 649z" stroke="#111323" fill="#111323" style="animation-play-state:paused" ></path>
<path d="M1530 549L1534 658L1540 470z" stroke="#13162b" fill="#13162b" style="animation-play-state:paused" ></path>
<path d="M-240 78L-177 142L-174 45z" stroke="#689cc5" fill="#689cc5" style="animation-play-state:paused" ></path>
<path d="M-240 78L-242 176L-177 142z" stroke="#6799c3" fill="#6799c3" style="animation-play-state:paused" ></path>
<path d="M-172 243L-268 351L-159 368z" stroke="#6184b4" fill="#6184b4" style="animation-play-state:paused" ></path>
<path d="M-242 774L-151 773L-158 662z" stroke="#5c6c9f" fill="#5c6c9f" style="animation-play-state:paused" ></path>
<path d="M1530 42L1536 -47L1443 -32z" stroke="#4d5986" fill="#4d5986" style="animation-play-state:paused" ></path>
<path d="M1539 149L1536 -47L1530 42z" stroke="#444e76" fill="#444e76" style="animation-play-state:paused" ></path>
<path d="M1540 470L1536 -47L1539 149z" stroke="#2e3557" fill="#2e3557" style="animation-play-state:paused" ></path>
<path d="M-53 -137L-147 -132L-72 -60z" stroke="#75b6d5" fill="#75b6d5" style="animation-play-state:paused" ></path>
<path d="M-259 -38L-240 78L-174 45z" stroke="#6eaace" fill="#6eaace" style="animation-play-state:paused" ></path>
<path d="M-250 571L-158 662L-170 548z" stroke="#5e71a5" fill="#5e71a5" style="animation-play-state:paused" ></path>
<path d="M-158 662L-151 773L-47 681z" stroke="#576697" fill="#576697" style="animation-play-state:paused" ></path>
<path d="M-265 250L-268 351L-172 243z" stroke="#638bb9" fill="#638bb9" style="animation-play-state:paused" ></path>
<path d="M-240 78L-265 250L-242 176z" stroke="#6697c2" fill="#6697c2" style="animation-play-state:paused" ></path>
<path d="M-242 176L-265 250L-172 243z" stroke="#6490bd" fill="#6490bd" style="animation-play-state:paused" ></path>
<path d="M-259 -38L-174 45L-160 -33z" stroke="#70add0" fill="#70add0" style="animation-play-state:paused" ></path>
<path d="M-267 447L-170 548L-171 455z" stroke="#5f78aa" fill="#5f78aa" style="animation-play-state:paused" ></path>
<path d="M-265 250L-267 447L-268 351z" stroke="#6288b7" fill="#6288b7" style="animation-play-state:paused" ></path>
<path d="M-268 351L-267 447L-159 368z" stroke="#6181b2" fill="#6181b2" style="animation-play-state:paused" ></path>
<path d="M1060 780L1537 763L1246 766z" stroke="#121426" fill="#121426" style="animation-play-state:paused" ></path>
<path d="M1444 762L1537 763L1534 658z" stroke="#0f1220" fill="#0f1220" style="animation-play-state:paused" ></path>
<path d="M1534 658L1537 763L1540 470z" stroke="#121426" fill="#121426" style="animation-play-state:paused" ></path>
<path d="M1540 470L1546 -131L1536 -47z" stroke="#3c456a" fill="#3c456a" style="animation-play-state:paused" ></path>
<path d="M1536 -47L1546 -131L1444 -132z" stroke="#5b6a9d" fill="#5b6a9d" style="animation-play-state:paused" ></path>
<path d="M1444 -132L1546 -131L1339 -149z" stroke="#5e72a5" fill="#5e72a5" style="animation-play-state:paused" ></path>
<path d="M1339 -149L1546 -131L1222 -154z" stroke="#5f74a7" fill="#5f74a7" style="animation-play-state:paused" ></path>
<path d="M-267 447L-245 670L-250 571z" stroke="#5f78ab" fill="#5f78ab" style="animation-play-state:paused" ></path>
<path d="M-250 571L-245 670L-158 662z" stroke="#5e72a5" fill="#5e72a5" style="animation-play-state:paused" ></path>
<path d="M-240 78L-259 -38L-265 250z" stroke="#6aa1c8" fill="#6aa1c8" style="animation-play-state:paused" ></path>
<path d="M-238 -123L-259 -38L-160 -33z" stroke="#78bad7" fill="#78bad7" style="animation-play-state:paused" ></path>
<path d="M-53 -137L-238 -123L-147 -132z" stroke="#7cbfda" fill="#7cbfda" style="animation-play-state:paused" ></path>
<path d="M-147 -132L-238 -123L-160 -33z" stroke="#79bcd8" fill="#79bcd8" style="animation-play-state:paused" ></path>
<path d="M-245 670L-242 774L-158 662z" stroke="#5e70a4" fill="#5e70a4" style="animation-play-state:paused" ></path>
<path d="M-151 773L-242 774L-43 771z" stroke="#586899" fill="#586899" style="animation-play-state:paused" ></path>
<path d="M-43 771L-242 774L553 772z" stroke="#46517b" fill="#46517b" style="animation-play-state:paused" ></path>
<path d="M-267 447L-242 774L-245 670z" stroke="#5f75a8" fill="#5f75a8" style="animation-play-state:paused" ></path></g>
<style type="text/css" style="animation-play-state:paused" >#bk-0.834485770232963 path { stroke-width: 1 }</style></g></svg>