<?xml version="1.0" encoding="utf-8"?><svg xmlns="http://www.w3.org/2000/svg" xmlns:xlink="http://www.w3.org/1999/xlink" width="1280" height="658" preserveAspectRatio="xMidYMid" viewBox="0 0 1280 658" style="z-index:1;display:block;background-color:rgb(241, 242, 243);animation-play-state:paused" ><g transform="translate(640,329) scale(1,1) translate(-640,-329)" style="animation-play-state:paused" ><g id="bk-0.4862064328774194" style="animation-play-state:paused" ><path d="M630 240L651 162L569 178z" stroke="#42918c" fill="#42918c" style="animation-play-state:paused" ></path>
<path d="M569 178L549 255L630 240z" stroke="#529b8c" fill="#529b8c" style="animation-play-state:paused" ></path>
<path d="M733 246L742 153L651 162z" stroke="#5ba190" fill="#5ba190" style="animation-play-state:paused" ></path>
<path d="M651 162L648 69L569 178z" stroke="#236d86" fill="#236d86" style="animation-play-state:paused" ></path>
<path d="M742 153L648 69L651 162z" stroke="#267689" fill="#267689" style="animation-play-state:paused" ></path>
<path d="M663 360L733 246L630 240z" stroke="#71b5b3" fill="#71b5b3" style="animation-play-state:paused" ></path>
<path d="M630 240L733 246L651 162z" stroke="#5ea596" fill="#5ea596" style="animation-play-state:paused" ></path>
<path d="M541 55L459 177L569 178z" stroke="#2a5177" fill="#2a5177" style="animation-play-state:paused" ></path>
<path d="M569 178L459 177L549 255z" stroke="#2c7f8a" fill="#2c7f8a" style="animation-play-state:paused" ></path>
<path d="M648 69L541 55L569 178z" stroke="#2e4a71" fill="#2e4a71" style="animation-play-state:paused" ></path>
<path d="M459 177L434 262L549 255z" stroke="#2f828b" fill="#2f828b" style="animation-play-state:paused" ></path>
<path d="M549 255L548 377L630 240z" stroke="#65aca3" fill="#65aca3" style="animation-play-state:paused" ></path>
<path d="M435 346L548 377L549 255z" stroke="#65aca3" fill="#65aca3" style="animation-play-state:paused" ></path>
<path d="M548 377L663 360L630 240z" stroke="#75b8b8" fill="#75b8b8" style="animation-play-state:paused" ></path>
<path d="M841 145L759 76L742 153z" stroke="#3a8b8c" fill="#3a8b8c" style="animation-play-state:paused" ></path>
<path d="M742 153L759 76L648 69z" stroke="#226a85" fill="#226a85" style="animation-play-state:paused" ></path>
<path d="M648 69L662 -27L541 55z" stroke="#371f45" fill="#371f45" style="animation-play-state:paused" ></path>
<path d="M663 360L725 357L733 246z" stroke="#83c1c8" fill="#83c1c8" style="animation-play-state:paused" ></path>
<path d="M733 246L841 145L742 153z" stroke="#5fa698" fill="#5fa698" style="animation-play-state:paused" ></path>
<path d="M541 55L436 69L459 177z" stroke="#372b53" fill="#372b53" style="animation-play-state:paused" ></path>
<path d="M459 177L329 166L434 262z" stroke="#27597c" fill="#27597c" style="animation-play-state:paused" ></path>
<path d="M360 365L435 346L434 262z" stroke="#589f8c" fill="#589f8c" style="animation-play-state:paused" ></path>
<path d="M434 262L435 346L549 255z" stroke="#599f8c" fill="#599f8c" style="animation-play-state:paused" ></path>
<path d="M850 265L841 145L733 246z" stroke="#6db3af" fill="#6db3af" style="animation-play-state:paused" ></path>
<path d="M759 76L662 -27L648 69z" stroke="#35365f" fill="#35365f" style="animation-play-state:paused" ></path>
<path d="M541 55L536 -61L436 69z" stroke="#3d1f41" fill="#3d1f41" style="animation-play-state:paused" ></path>
<path d="M536 446L621 452L548 377z" stroke="#8ac6cf" fill="#8ac6cf" style="animation-play-state:paused" ></path>
<path d="M548 377L621 452L663 360z" stroke="#8ac6cf" fill="#8ac6cf" style="animation-play-state:paused" ></path>
<path d="M663 360L755 459L725 357z" stroke="#99cfdd" fill="#99cfdd" style="animation-play-state:paused" ></path>
<path d="M829 340L733 246L725 357z" stroke="#8ac5cf" fill="#8ac5cf" style="animation-play-state:paused" ></path>
<path d="M829 340L850 265L733 246z" stroke="#85c2ca" fill="#85c2ca" style="animation-play-state:paused" ></path>
<path d="M435 346L536 446L548 377z" stroke="#74b8b8" fill="#74b8b8" style="animation-play-state:paused" ></path>
<path d="M662 -27L536 -61L541 55z" stroke="#3e2042" fill="#3e2042" style="animation-play-state:paused" ></path>
<path d="M317 44L329 166L436 69z" stroke="#3b1d3f" fill="#3b1d3f" style="animation-play-state:paused" ></path>
<path d="M436 69L329 166L459 177z" stroke="#362f58" fill="#362f58" style="animation-play-state:paused" ></path>
<path d="M854 469L829 340L725 357z" stroke="#8dccd4" fill="#8dccd4" style="animation-play-state:paused" ></path>
<path d="M841 145L834 52L759 76z" stroke="#287a89" fill="#287a89" style="animation-play-state:paused" ></path>
<path d="M759 76L766 -19L662 -27z" stroke="#372850" fill="#372850" style="animation-play-state:paused" ></path>
<path d="M944 66L834 52L841 145z" stroke="#31848b" fill="#31848b" style="animation-play-state:paused" ></path>
<path d="M834 52L766 -19L759 76z" stroke="#2d4a72" fill="#2d4a72" style="animation-play-state:paused" ></path>
<path d="M662 -27L654 -122L536 -61z" stroke="#462a49" fill="#462a49" style="animation-play-state:paused" ></path>
<path d="M329 166L341 252L434 262z" stroke="#265b7e" fill="#265b7e" style="animation-play-state:paused" ></path>
<path d="M435 346L450 481L536 446z" stroke="#77babb" fill="#77babb" style="animation-play-state:paused" ></path>
<path d="M536 -61L420 -59L436 69z" stroke="#462a49" fill="#462a49" style="animation-play-state:paused" ></path>
<path d="M341 252L360 365L434 262z" stroke="#32858b" fill="#32858b" style="animation-play-state:paused" ></path>
<path d="M738 564L755 459L621 452z" stroke="#83c9c9" fill="#83c9c9" style="animation-play-state:paused" ></path>
<path d="M621 452L755 459L663 360z" stroke="#96cedb" fill="#96cedb" style="animation-play-state:paused" ></path>
<path d="M360 365L450 481L435 346z" stroke="#67ada6" fill="#67ada6" style="animation-play-state:paused" ></path>
<path d="M551 571L634 565L621 452z" stroke="#8cccd3" fill="#8cccd3" style="animation-play-state:paused" ></path>
<path d="M420 -59L317 44L436 69z" stroke="#442848" fill="#442848" style="animation-play-state:paused" ></path>
<path d="M329 166L244 161L341 252z" stroke="#36315a" fill="#36315a" style="animation-play-state:paused" ></path>
<path d="M948 354L926 264L850 265z" stroke="#99cedd" fill="#99cedd" style="animation-play-state:paused" ></path>
<path d="M850 265L926 264L841 145z" stroke="#77babb" fill="#77babb" style="animation-play-state:paused" ></path>
<path d="M948 354L850 265L829 340z" stroke="#98cedc" fill="#98cedc" style="animation-play-state:paused" ></path>
<path d="M726 -143L654 -122L662 -27z" stroke="#482d4b" fill="#482d4b" style="animation-play-state:paused" ></path>
<path d="M536 -61L444 -132L420 -59z" stroke="#513853" fill="#513853" style="animation-play-state:paused" ></path>
<path d="M944 66L843 -25L834 52z" stroke="#27587c" fill="#27587c" style="animation-play-state:paused" ></path>
<path d="M834 52L843 -25L766 -19z" stroke="#35355e" fill="#35355e" style="animation-play-state:paused" ></path>
<path d="M766 -19L726 -143L662 -27z" stroke="#402344" fill="#402344" style="animation-play-state:paused" ></path>
<path d="M654 -122L535 -147L536 -61z" stroke="#4f3652" fill="#4f3652" style="animation-play-state:paused" ></path>
<path d="M926 264L954 151L841 145z" stroke="#6db3af" fill="#6db3af" style="animation-play-state:paused" ></path>
<path d="M755 459L854 469L725 357z" stroke="#86cacd" fill="#86cacd" style="animation-play-state:paused" ></path>
<path d="M833 -151L726 -143L766 -19z" stroke="#452948" fill="#452948" style="animation-play-state:paused" ></path>
<path d="M654 -122L726 -143L535 -147z" stroke="#513854" fill="#513854" style="animation-play-state:paused" ></path>
<path d="M317 44L244 161L329 166z" stroke="#3b1c3f" fill="#3b1c3f" style="animation-play-state:paused" ></path>
<path d="M341 252L245 363L360 365z" stroke="#2e818b" fill="#2e818b" style="animation-play-state:paused" ></path>
<path d="M551 571L621 452L536 446z" stroke="#99cfdd" fill="#99cfdd" style="animation-play-state:paused" ></path>
<path d="M755 459L817 554L854 469z" stroke="#79c4b7" fill="#79c4b7" style="animation-play-state:paused" ></path>
<path d="M245 363L340 454L360 365z" stroke="#599f8c" fill="#599f8c" style="animation-play-state:paused" ></path>
<path d="M360 365L340 454L450 481z" stroke="#69afa9" fill="#69afa9" style="animation-play-state:paused" ></path>
<path d="M450 481L551 571L536 446z" stroke="#93cad7" fill="#93cad7" style="animation-play-state:paused" ></path>
<path d="M344 -145L444 -132L535 -147z" stroke="#2e5378" fill="#2e5378" style="animation-play-state:paused" ></path>
<path d="M535 -147L444 -132L536 -61z" stroke="#543b56" fill="#543b56" style="animation-play-state:paused" ></path>
<path d="M420 -59L318 -61L317 44z" stroke="#4e3451" fill="#4e3451" style="animation-play-state:paused" ></path>
<path d="M317 44L234 42L244 161z" stroke="#432747" fill="#432747" style="animation-play-state:paused" ></path>
<path d="M954 151L944 66L841 145z" stroke="#5aa18f" fill="#5aa18f" style="animation-play-state:paused" ></path>
<path d="M244 161L234 240L341 252z" stroke="#35355f" fill="#35355f" style="animation-play-state:paused" ></path>
<path d="M444 -132L318 -61L420 -59z" stroke="#553d57" fill="#553d57" style="animation-play-state:paused" ></path>
<path d="M427 565L551 571L450 481z" stroke="#94cbd8" fill="#94cbd8" style="animation-play-state:paused" ></path>
<path d="M634 565L738 564L621 452z" stroke="#83c9c9" fill="#83c9c9" style="animation-play-state:paused" ></path>
<path d="M928 440L829 340L854 469z" stroke="#7fc8c3" fill="#7fc8c3" style="animation-play-state:paused" ></path>
<path d="M928 440L948 354L829 340z" stroke="#84caca" fill="#84caca" style="animation-play-state:paused" ></path>
<path d="M926 264L1045 150L954 151z" stroke="#75b8b9" fill="#75b8b9" style="animation-play-state:paused" ></path>
<path d="M954 151L1045 150L944 66z" stroke="#5fa699" fill="#5fa699" style="animation-play-state:paused" ></path>
<path d="M340 454L427 565L450 481z" stroke="#7bbcbf" fill="#7bbcbf" style="animation-play-state:paused" ></path>
<path d="M234 240L245 363L341 252z" stroke="#265c7e" fill="#265c7e" style="animation-play-state:paused" ></path>
<path d="M258 -34L234 42L317 44z" stroke="#4d324f" fill="#4d324f" style="animation-play-state:paused" ></path>
<path d="M154 148L157 269L234 240z" stroke="#36173b" fill="#36173b" style="animation-play-state:paused" ></path>
<path d="M925 543L928 440L854 469z" stroke="#76c1a8" fill="#76c1a8" style="animation-play-state:paused" ></path>
<path d="M944 66L937 -61L843 -25z" stroke="#324069" fill="#324069" style="animation-play-state:paused" ></path>
<path d="M843 -25L833 -151L766 -19z" stroke="#3c1e40" fill="#3c1e40" style="animation-play-state:paused" ></path>
<path d="M831 649L817 554L738 564z" stroke="#76bea0" fill="#76bea0" style="animation-play-state:paused" ></path>
<path d="M738 564L817 554L755 459z" stroke="#79c4b5" fill="#79c4b5" style="animation-play-state:paused" ></path>
<path d="M937 -61L833 -151L843 -25z" stroke="#3c1e40" fill="#3c1e40" style="animation-play-state:paused" ></path>
<path d="M726 -143L344 -145L535 -147z" stroke="#514364" fill="#514364" style="animation-play-state:paused" ></path>
<path d="M257 -135L258 -34L318 -61z" stroke="#3b4e74" fill="#3b4e74" style="animation-play-state:paused" ></path>
<path d="M318 -61L258 -34L317 44z" stroke="#503753" fill="#503753" style="animation-play-state:paused" ></path>
<path d="M1055 280L1045 150L926 264z" stroke="#8bc6d0" fill="#8bc6d0" style="animation-play-state:paused" ></path>
<path d="M944 66L1024 65L937 -61z" stroke="#236382" fill="#236382" style="animation-play-state:paused" ></path>
<path d="M1055 280L926 264L948 354z" stroke="#93cdd8" fill="#93cdd8" style="animation-play-state:paused" ></path>
<path d="M444 -132L344 -145L318 -61z" stroke="#375076" fill="#375076" style="animation-play-state:paused" ></path>
<path d="M833 -151L344 -145L726 -143z" stroke="#533a55" fill="#533a55" style="animation-play-state:paused" ></path>
<path d="M125 450L230 468L245 363z" stroke="#31848b" fill="#31848b" style="animation-play-state:paused" ></path>
<path d="M245 363L230 468L340 454z" stroke="#579e8c" fill="#579e8c" style="animation-play-state:paused" ></path>
<path d="M340 454L351 567L427 565z" stroke="#7abbbe" fill="#7abbbe" style="animation-play-state:paused" ></path>
<path d="M157 269L245 363L234 240z" stroke="#2e4971" fill="#2e4971" style="animation-play-state:paused" ></path>
<path d="M256 551L351 567L340 454z" stroke="#6db3af" fill="#6db3af" style="animation-play-state:paused" ></path>
<path d="M552 649L643 636L551 571z" stroke="#82c9c9" fill="#82c9c9" style="animation-play-state:paused" ></path>
<path d="M551 571L643 636L634 565z" stroke="#82c9c7" fill="#82c9c7" style="animation-play-state:paused" ></path>
<path d="M634 565L747 667L738 564z" stroke="#78c3b2" fill="#78c3b2" style="animation-play-state:paused" ></path>
<path d="M552 649L551 571L427 565z" stroke="#91cdd7" fill="#91cdd7" style="animation-play-state:paused" ></path>
<path d="M1045 150L1024 65L944 66z" stroke="#599f8c" fill="#599f8c" style="animation-play-state:paused" ></path>
<path d="M937 -61L956 -116L833 -151z" stroke="#402344" fill="#402344" style="animation-play-state:paused" ></path>
<path d="M1065 367L1055 280L948 354z" stroke="#84caca" fill="#84caca" style="animation-play-state:paused" ></path>
<path d="M1140 47L1067 -18L1024 65z" stroke="#297b8a" fill="#297b8a" style="animation-play-state:paused" ></path>
<path d="M154 148L244 161L161 62z" stroke="#432646" fill="#432646" style="animation-play-state:paused" ></path>
<path d="M154 148L234 240L244 161z" stroke="#391a3d" fill="#391a3d" style="animation-play-state:paused" ></path>
<path d="M161 62L244 161L234 42z" stroke="#462a49" fill="#462a49" style="animation-play-state:paused" ></path>
<path d="M431 657L552 649L427 565z" stroke="#95ceda" fill="#95ceda" style="animation-play-state:paused" ></path>
<path d="M117 -35L161 62L234 42z" stroke="#533a55" fill="#533a55" style="animation-play-state:paused" ></path>
<path d="M117 -35L234 42L258 -34z" stroke="#553d57" fill="#553d57" style="animation-play-state:paused" ></path>
<path d="M817 554L925 543L854 469z" stroke="#76bfa3" fill="#76bfa3" style="animation-play-state:paused" ></path>
<path d="M928 440L1065 367L948 354z" stroke="#7cc6bd" fill="#7cc6bd" style="animation-play-state:paused" ></path>
<path d="M914 633L925 543L817 554z" stroke="#6fb88a" fill="#6fb88a" style="animation-play-state:paused" ></path>
<path d="M1067 -18L956 -116L937 -61z" stroke="#371c41" fill="#371c41" style="animation-play-state:paused" ></path>
<path d="M351 567L431 657L427 565z" stroke="#8dc7d2" fill="#8dc7d2" style="animation-play-state:paused" ></path>
<path d="M1061 459L1065 367L928 440z" stroke="#76c1ab" fill="#76c1ab" style="animation-play-state:paused" ></path>
<path d="M635 748L747 667L643 636z" stroke="#77c2ac" fill="#77c2ac" style="animation-play-state:paused" ></path>
<path d="M643 636L747 667L634 565z" stroke="#78c4b5" fill="#78c4b5" style="animation-play-state:paused" ></path>
<path d="M344 -145L257 -135L318 -61z" stroke="#005e78" fill="#005e78" style="animation-play-state:paused" ></path>
<path d="M33 260L117 353L157 269z" stroke="#372147" fill="#372147" style="animation-play-state:paused" ></path>
<path d="M157 269L117 353L245 363z" stroke="#2c4d74" fill="#2c4d74" style="animation-play-state:paused" ></path>
<path d="M230 468L256 551L340 454z" stroke="#61a89d" fill="#61a89d" style="animation-play-state:paused" ></path>
<path d="M33 260L157 269L154 148z" stroke="#3b1d3f" fill="#3b1d3f" style="animation-play-state:paused" ></path>
<path d="M747 667L831 649L738 564z" stroke="#75bd9d" fill="#75bd9d" style="animation-play-state:paused" ></path>
<path d="M1024 65L1067 -18L937 -61z" stroke="#295378" fill="#295378" style="animation-play-state:paused" ></path>
<path d="M1140 47L1024 65L1045 150z" stroke="#5ba190" fill="#5ba190" style="animation-play-state:paused" ></path>
<path d="M148 583L256 551L230 468z" stroke="#5da495" fill="#5da495" style="animation-play-state:paused" ></path>
<path d="M351 567L328 654L431 657z" stroke="#89c5ce" fill="#89c5ce" style="animation-play-state:paused" ></path>
<path d="M1047 580L1061 459L925 543z" stroke="#6db37b" fill="#6db37b" style="animation-play-state:paused" ></path>
<path d="M925 543L1061 459L928 440z" stroke="#74bd9b" fill="#74bd9b" style="animation-play-state:paused" ></path>
<path d="M1126 337L1127 249L1055 280z" stroke="#8acbd1" fill="#8acbd1" style="animation-play-state:paused" ></path>
<path d="M1055 280L1127 249L1045 150z" stroke="#91c9d5" fill="#91c9d5" style="animation-play-state:paused" ></path>
<path d="M1126 337L1055 280L1065 367z" stroke="#81c8c6" fill="#81c8c6" style="animation-play-state:paused" ></path>
<path d="M256 551L328 654L351 567z" stroke="#77b9ba" fill="#77b9ba" style="animation-play-state:paused" ></path>
<path d="M543 775L635 748L552 649z" stroke="#7cc7bf" fill="#7cc7bf" style="animation-play-state:paused" ></path>
<path d="M552 649L635 748L643 636z" stroke="#7bc6bb" fill="#7bc6bb" style="animation-play-state:paused" ></path>
<path d="M141 -130L117 -35L258 -34z" stroke="#006175" fill="#006175" style="animation-play-state:paused" ></path>
<path d="M161 62L44 61L154 148z" stroke="#4d324f" fill="#4d324f" style="animation-play-state:paused" ></path>
<path d="M117 353L125 450L245 363z" stroke="#236583" fill="#236583" style="animation-play-state:paused" ></path>
<path d="M31 351L125 450L117 353z" stroke="#2f4770" fill="#2f4770" style="animation-play-state:paused" ></path>
<path d="M1127 249L1128 168L1045 150z" stroke="#82c1c7" fill="#82c1c7" style="animation-play-state:paused" ></path>
<path d="M1141 441L1126 337L1065 367z" stroke="#77c2ae" fill="#77c2ae" style="animation-play-state:paused" ></path>
<path d="M1127 249L1247 252L1128 168z" stroke="#99cedc" fill="#99cedc" style="animation-play-state:paused" ></path>
<path d="M844 756L914 633L831 649z" stroke="#6db071" fill="#6db071" style="animation-play-state:paused" ></path>
<path d="M831 649L914 633L817 554z" stroke="#6eb787" fill="#6eb787" style="animation-play-state:paused" ></path>
<path d="M1128 168L1140 47L1045 150z" stroke="#67aea6" fill="#67aea6" style="animation-play-state:paused" ></path>
<path d="M1133 -50L1036 -141L1067 -18z" stroke="#37264d" fill="#37264d" style="animation-play-state:paused" ></path>
<path d="M1067 -18L1036 -141L956 -116z" stroke="#391b3e" fill="#391b3e" style="animation-play-state:paused" ></path>
<path d="M956 -116L1036 -141L833 -151z" stroke="#442848" fill="#442848" style="animation-play-state:paused" ></path>
<path d="M833 -151L1036 -141L344 -145z" stroke="#4e3451" fill="#4e3451" style="animation-play-state:paused" ></path>
<path d="M543 775L552 649L464 773z" stroke="#84c9ca" fill="#84c9ca" style="animation-play-state:paused" ></path>
<path d="M747 667L844 756L831 649z" stroke="#6eb583" fill="#6eb583" style="animation-play-state:paused" ></path>
<path d="M257 -135L141 -130L258 -34z" stroke="#006769" fill="#006769" style="animation-play-state:paused" ></path>
<path d="M19 -155L141 -130L257 -135z" stroke="#866717" fill="#866717" style="animation-play-state:paused" ></path>
<path d="M58 -32L161 62L117 -35z" stroke="#404c72" fill="#404c72" style="animation-play-state:paused" ></path>
<path d="M58 -32L44 61L161 62z" stroke="#524262" fill="#524262" style="animation-play-state:paused" ></path>
<path d="M37 156L33 260L154 148z" stroke="#432747" fill="#432747" style="animation-play-state:paused" ></path>
<path d="M44 61L37 156L154 148z" stroke="#4b314e" fill="#4b314e" style="animation-play-state:paused" ></path>
<path d="M464 773L552 649L431 657z" stroke="#8cccd3" fill="#8cccd3" style="animation-play-state:paused" ></path>
<path d="M33 260L31 351L117 353z" stroke="#371e44" fill="#371e44" style="animation-play-state:paused" ></path>
<path d="M148 583L234 640L256 551z" stroke="#64aaa0" fill="#64aaa0" style="animation-play-state:paused" ></path>
<path d="M1140 47L1133 -50L1067 -18z" stroke="#246080" fill="#246080" style="animation-play-state:paused" ></path>
<path d="M1136 -157L1133 -50L1236 -153z" stroke="#3a1c3f" fill="#3a1c3f" style="animation-play-state:paused" ></path>
<path d="M148 583L230 468L125 450z" stroke="#43918c" fill="#43918c" style="animation-play-state:paused" ></path>
<path d="M256 551L234 640L328 654z" stroke="#71b6b4" fill="#71b6b4" style="animation-play-state:paused" ></path>
<path d="M319 738L464 773L431 657z" stroke="#9acfdd" fill="#9acfdd" style="animation-play-state:paused" ></path>
<path d="M1134 562L1141 441L1061 459z" stroke="#6db277" fill="#6db277" style="animation-play-state:paused" ></path>
<path d="M1061 459L1141 441L1065 367z" stroke="#76bea0" fill="#76bea0" style="animation-play-state:paused" ></path>
<path d="M1126 337L1247 252L1127 249z" stroke="#88cbcf" fill="#88cbcf" style="animation-play-state:paused" ></path>
<path d="M37 564L148 583L125 450z" stroke="#2f828b" fill="#2f828b" style="animation-play-state:paused" ></path>
<path d="M635 748L740 778L747 667z" stroke="#76be9e" fill="#76be9e" style="animation-play-state:paused" ></path>
<path d="M543 775L740 778L635 748z" stroke="#77c2ae" fill="#77c2ae" style="animation-play-state:paused" ></path>
<path d="M914 633L1047 580L925 543z" stroke="#6daf6e" fill="#6daf6e" style="animation-play-state:paused" ></path>
<path d="M1049 668L1047 580L914 633z" stroke="#73a54f" fill="#73a54f" style="animation-play-state:paused" ></path>
<path d="M319 738L431 657L328 654z" stroke="#8dc7d2" fill="#8dc7d2" style="animation-play-state:paused" ></path>
<path d="M19 -155L58 -32L117 -35z" stroke="#3a6f31" fill="#3a6f31" style="animation-play-state:paused" ></path>
<path d="M44 61L-46 60L37 156z" stroke="#553c57" fill="#553c57" style="animation-play-state:paused" ></path>
<path d="M740 778L844 756L747 667z" stroke="#6eb787" fill="#6eb787" style="animation-play-state:paused" ></path>
<path d="M246 759L319 738L328 654z" stroke="#81c0c6" fill="#81c0c6" style="animation-play-state:paused" ></path>
<path d="M148 583L133 652L234 640z" stroke="#60a79a" fill="#60a79a" style="animation-play-state:paused" ></path>
<path d="M31 351L17 435L125 450z" stroke="#30456e" fill="#30456e" style="animation-play-state:paused" ></path>
<path d="M-50 356L17 435L31 351z" stroke="#372046" fill="#372046" style="animation-play-state:paused" ></path>
<path d="M-50 356L31 351L33 260z" stroke="#391b3e" fill="#391b3e" style="animation-play-state:paused" ></path>
<path d="M1237 -43L1133 -50L1140 47z" stroke="#246080" fill="#246080" style="animation-play-state:paused" ></path>
<path d="M1133 -50L1136 -157L1036 -141z" stroke="#3b1d40" fill="#3b1d40" style="animation-play-state:paused" ></path>
<path d="M931 762L1049 668L914 633z" stroke="#74a248" fill="#74a248" style="animation-play-state:paused" ></path>
<path d="M1047 580L1134 562L1061 459z" stroke="#6eac64" fill="#6eac64" style="animation-play-state:paused" ></path>
<path d="M1239 364L1126 337L1234 444z" stroke="#76bfa3" fill="#76bfa3" style="animation-play-state:paused" ></path>
<path d="M1239 364L1247 252L1126 337z" stroke="#7cc6be" fill="#7cc6be" style="animation-play-state:paused" ></path>
<path d="M1128 168L1234 42L1140 47z" stroke="#5fa699" fill="#5fa699" style="animation-play-state:paused" ></path>
<path d="M740 778L931 762L844 756z" stroke="#6eae6c" fill="#6eae6c" style="animation-play-state:paused" ></path>
<path d="M844 756L931 762L914 633z" stroke="#70a95c" fill="#70a95c" style="animation-play-state:paused" ></path>
<path d="M1247 252L1262 169L1128 168z" stroke="#90c9d4" fill="#90c9d4" style="animation-play-state:paused" ></path>
<path d="M1155 669L1134 562L1047 580z" stroke="#7b9b33" fill="#7b9b33" style="animation-play-state:paused" ></path>
<path d="M1262 169L1234 42L1128 168z" stroke="#70b4b2" fill="#70b4b2" style="animation-play-state:paused" ></path>
<path d="M37 564L133 652L148 583z" stroke="#46948c" fill="#46948c" style="animation-play-state:paused" ></path>
<path d="M234 640L246 759L328 654z" stroke="#78babc" fill="#78babc" style="animation-play-state:paused" ></path>
<path d="M1234 444L1126 337L1141 441z" stroke="#74bd9a" fill="#74bd9a" style="animation-play-state:paused" ></path>
<path d="M1247 252L1322 264L1262 169z" stroke="#93cdd9" fill="#93cdd9" style="animation-play-state:paused" ></path>
<path d="M-55 -23L-46 60L44 61z" stroke="#005e78" fill="#005e78" style="animation-play-state:paused" ></path>
<path d="M37 156L-67 261L33 260z" stroke="#442848" fill="#442848" style="animation-play-state:paused" ></path>
<path d="M-55 -23L44 61L58 -32z" stroke="#006372" fill="#006372" style="animation-play-state:paused" ></path>
<path d="M-77 133L-67 261L37 156z" stroke="#4d324f" fill="#4d324f" style="animation-play-state:paused" ></path>
<path d="M133 652L246 759L234 640z" stroke="#6ab0aa" fill="#6ab0aa" style="animation-play-state:paused" ></path>
<path d="M319 738L246 759L464 773z" stroke="#8ec8d3" fill="#8ec8d3" style="animation-play-state:paused" ></path>
<path d="M17 435L37 564L125 450z" stroke="#246081" fill="#246081" style="animation-play-state:paused" ></path>
<path d="M133 652L139 755L246 759z" stroke="#66ada4" fill="#66ada4" style="animation-play-state:paused" ></path>
<path d="M-63 455L37 564L17 435z" stroke="#2f466f" fill="#2f466f" style="animation-play-state:paused" ></path>
<path d="M1134 562L1234 444L1141 441z" stroke="#6eae6c" fill="#6eae6c" style="animation-play-state:paused" ></path>
<path d="M-46 60L-77 133L37 156z" stroke="#553c57" fill="#553c57" style="animation-play-state:paused" ></path>
<path d="M344 -145L19 -155L257 -135z" stroke="#566f21" fill="#566f21" style="animation-play-state:paused" ></path>
<path d="M141 -130L19 -155L117 -35z" stroke="#676d18" fill="#676d18" style="animation-play-state:paused" ></path>
<path d="M1036 -141L19 -155L344 -145z" stroke="#335177" fill="#335177" style="animation-play-state:paused" ></path>
<path d="M1335 -37L1237 -43L1234 42z" stroke="#236d86" fill="#236d86" style="animation-play-state:paused" ></path>
<path d="M1234 42L1237 -43L1140 47z" stroke="#2b7e8a" fill="#2b7e8a" style="animation-play-state:paused" ></path>
<path d="M-136 274L-50 356L-67 261z" stroke="#442847" fill="#442847" style="animation-play-state:paused" ></path>
<path d="M-67 261L-50 356L33 260z" stroke="#3f2243" fill="#3f2243" style="animation-play-state:paused" ></path>
<path d="M-169 38L-144 157L-77 133z" stroke="#155879" fill="#155879" style="animation-play-state:paused" ></path>
<path d="M19 -155L-55 -23L58 -32z" stroke="#6b6c17" fill="#6b6c17" style="animation-play-state:paused" ></path>
<path d="M1049 668L1155 669L1047 580z" stroke="#7d982b" fill="#7d982b" style="animation-play-state:paused" ></path>
<path d="M1134 562L1241 578L1234 444z" stroke="#75a247" fill="#75a247" style="animation-play-state:paused" ></path>
<path d="M931 762L1028 758L1049 668z" stroke="#7d992d" fill="#7d992d" style="animation-play-state:paused" ></path>
<path d="M740 778L1028 758L931 762z" stroke="#72a654" fill="#72a654" style="animation-play-state:paused" ></path>
<path d="M1232 753L1028 758L1539 755z" stroke="#ceb337" fill="#ceb337" style="animation-play-state:paused" ></path>
<path d="M1120 733L1155 669L1049 668z" stroke="#909d28" fill="#909d28" style="animation-play-state:paused" ></path>
<path d="M-161 359L-63 455L-50 356z" stroke="#3c1e40" fill="#3c1e40" style="animation-play-state:paused" ></path>
<path d="M-50 356L-63 455L17 435z" stroke="#372148" fill="#372148" style="animation-play-state:paused" ></path>
<path d="M1136 -157L1236 -153L1036 -141z" stroke="#412445" fill="#412445" style="animation-play-state:paused" ></path>
<path d="M1237 -43L1236 -153L1133 -50z" stroke="#372a52" fill="#372a52" style="animation-play-state:paused" ></path>
<path d="M1335 -37L1236 -153L1237 -43z" stroke="#35345d" fill="#35345d" style="animation-play-state:paused" ></path>
<path d="M-83 647L55 676L37 564z" stroke="#236f86" fill="#236f86" style="animation-play-state:paused" ></path>
<path d="M37 564L55 676L133 652z" stroke="#3d8d8c" fill="#3d8d8c" style="animation-play-state:paused" ></path>
<path d="M55 676L139 755L133 652z" stroke="#5ba190" fill="#5ba190" style="animation-play-state:paused" ></path>
<path d="M246 759L139 755L464 773z" stroke="#7fbfc4" fill="#7fbfc4" style="animation-play-state:paused" ></path>
<path d="M1333 348L1239 364L1330 459z" stroke="#71ba91" fill="#71ba91" style="animation-play-state:paused" ></path>
<path d="M1333 348L1247 252L1239 364z" stroke="#79c5b7" fill="#79c5b7" style="animation-play-state:paused" ></path>
<path d="M1333 348L1322 264L1247 252z" stroke="#7fc8c3" fill="#7fc8c3" style="animation-play-state:paused" ></path>
<path d="M1262 169L1353 59L1234 42z" stroke="#66aca4" fill="#66aca4" style="animation-play-state:paused" ></path>
<path d="M1330 459L1239 364L1234 444z" stroke="#6eb581" fill="#6eb581" style="animation-play-state:paused" ></path>
<path d="M1454 149L1359 177L1451 272z" stroke="#98cedc" fill="#98cedc" style="animation-play-state:paused" ></path>
<path d="M1322 264L1359 177L1262 169z" stroke="#9bcfde" fill="#9bcfde" style="animation-play-state:paused" ></path>
<path d="M1240 664L1134 562L1155 669z" stroke="#909d28" fill="#909d28" style="animation-play-state:paused" ></path>
<path d="M1240 664L1241 578L1134 562z" stroke="#8a9b27" fill="#8a9b27" style="animation-play-state:paused" ></path>
<path d="M-144 157L-136 274L-67 261z" stroke="#4e3451" fill="#4e3451" style="animation-play-state:paused" ></path>
<path d="M-144 157L-67 261L-77 133z" stroke="#523954" fill="#523954" style="animation-play-state:paused" ></path>
<path d="M19 -155L-64 -147L-55 -23z" stroke="#c94a63" fill="#c94a63" style="animation-play-state:paused" ></path>
<path d="M-169 38L-77 133L-46 60z" stroke="#005e78" fill="#005e78" style="animation-play-state:paused" ></path>
<path d="M-162 -43L-46 60L-55 -23z" stroke="#426f2c" fill="#426f2c" style="animation-play-state:paused" ></path>
<path d="M1028 758L1120 733L1049 668z" stroke="#8b9b27" fill="#8b9b27" style="animation-play-state:paused" ></path>
<path d="M-63 455L-62 552L37 564z" stroke="#2f4770" fill="#2f4770" style="animation-play-state:paused" ></path>
<path d="M-144 464L-62 552L-63 455z" stroke="#37234a" fill="#37234a" style="animation-play-state:paused" ></path>
<path d="M1359 177L1353 59L1262 169z" stroke="#7abbbe" fill="#7abbbe" style="animation-play-state:paused" ></path>
<path d="M1241 578L1330 459L1234 444z" stroke="#72a550" fill="#72a550" style="animation-play-state:paused" ></path>
<path d="M1451 272L1359 177L1322 264z" stroke="#8bccd2" fill="#8bccd2" style="animation-play-state:paused" ></path>
<path d="M1359 177L1454 149L1353 59z" stroke="#7abbbe" fill="#7abbbe" style="animation-play-state:paused" ></path>
<path d="M1353 59L1335 -37L1234 42z" stroke="#3c8d8c" fill="#3c8d8c" style="animation-play-state:paused" ></path>
<path d="M-265 255L-161 359L-136 274z" stroke="#4d3350" fill="#4d3350" style="animation-play-state:paused" ></path>
<path d="M-136 274L-161 359L-50 356z" stroke="#432747" fill="#432747" style="animation-play-state:paused" ></path>
<path d="M1232 753L1240 664L1155 669z" stroke="#aea82e" fill="#aea82e" style="animation-play-state:paused" ></path>
<path d="M1241 578L1331 565L1330 459z" stroke="#7e982b" fill="#7e982b" style="animation-play-state:paused" ></path>
<path d="M-139 -121L-162 -43L-55 -23z" stroke="#c54c59" fill="#c54c59" style="animation-play-state:paused" ></path>
<path d="M-162 -43L-169 38L-46 60z" stroke="#436f2b" fill="#436f2b" style="animation-play-state:paused" ></path>
<path d="M-144 157L-246 159L-136 274z" stroke="#54415e" fill="#54415e" style="animation-play-state:paused" ></path>
<path d="M-45 774L15 751L55 676z" stroke="#2c7f8a" fill="#2c7f8a" style="animation-play-state:paused" ></path>
<path d="M55 676L15 751L139 755z" stroke="#4c988c" fill="#4c988c" style="animation-play-state:paused" ></path>
<path d="M-161 359L-144 464L-63 455z" stroke="#3b1e40" fill="#3b1e40" style="animation-play-state:paused" ></path>
<path d="M-62 552L-83 647L37 564z" stroke="#29557a" fill="#29557a" style="animation-play-state:paused" ></path>
<path d="M-163 562L-83 647L-62 552z" stroke="#343760" fill="#343760" style="animation-play-state:paused" ></path>
<path d="M1335 -37L1357 -140L1236 -153z" stroke="#371a3f" fill="#371a3f" style="animation-play-state:paused" ></path>
<path d="M1438 -32L1357 -140L1335 -37z" stroke="#30436c" fill="#30436c" style="animation-play-state:paused" ></path>
<path d="M1348 660L1331 565L1241 578z" stroke="#9fa22a" fill="#9fa22a" style="animation-play-state:paused" ></path>
<path d="M1451 272L1322 264L1419 353z" stroke="#7ac5ba" fill="#7ac5ba" style="animation-play-state:paused" ></path>
<path d="M-64 -147L-139 -121L-55 -23z" stroke="#ce4e76" fill="#ce4e76" style="animation-play-state:paused" ></path>
<path d="M-283 -42L-252 55L-169 38z" stroke="#b5553b" fill="#b5553b" style="animation-play-state:paused" ></path>
<path d="M1322 264L1333 348L1419 353z" stroke="#77c3b1" fill="#77c3b1" style="animation-play-state:paused" ></path>
<path d="M1353 59L1438 -32L1335 -37z" stroke="#2b7d8a" fill="#2b7d8a" style="animation-play-state:paused" ></path>
<path d="M1419 353L1333 348L1330 459z" stroke="#70b98d" fill="#70b98d" style="animation-play-state:paused" ></path>
<path d="M-144 464L-163 562L-62 552z" stroke="#371f45" fill="#371f45" style="animation-play-state:paused" ></path>
<path d="M-250 559L-163 562L-144 464z" stroke="#3a1c3f" fill="#3a1c3f" style="animation-play-state:paused" ></path>
<path d="M-268 461L-144 464L-161 359z" stroke="#422546" fill="#422546" style="animation-play-state:paused" ></path>
<path d="M1452 474L1419 353L1330 459z" stroke="#6eae6b" fill="#6eae6b" style="animation-play-state:paused" ></path>
<path d="M1240 664L1348 660L1241 578z" stroke="#a8a62c" fill="#a8a62c" style="animation-play-state:paused" ></path>
<path d="M1120 733L1232 753L1155 669z" stroke="#a9a62c" fill="#a9a62c" style="animation-play-state:paused" ></path>
<path d="M1028 758L1232 753L1120 733z" stroke="#a2a42b" fill="#a2a42b" style="animation-play-state:paused" ></path>
<path d="M1338 760L1232 753L1539 755z" stroke="#dea736" fill="#dea736" style="animation-play-state:paused" ></path>
<path d="M-252 55L-144 157L-169 38z" stroke="#006d4d" fill="#006d4d" style="animation-play-state:paused" ></path>
<path d="M-252 55L-246 159L-144 157z" stroke="#006866" fill="#006866" style="animation-play-state:paused" ></path>
<path d="M-246 159L-265 255L-136 274z" stroke="#54405e" fill="#54405e" style="animation-play-state:paused" ></path>
<path d="M1545 149L1441 74L1454 149z" stroke="#7abcbf" fill="#7abcbf" style="animation-play-state:paused" ></path>
<path d="M1454 149L1441 74L1353 59z" stroke="#6cb1ad" fill="#6cb1ad" style="animation-play-state:paused" ></path>
<path d="M-283 -42L-169 38L-162 -43z" stroke="#c54c58" fill="#c54c58" style="animation-play-state:paused" ></path>
<path d="M-246 159L-283 -42L-265 255z" stroke="#1d6f40" fill="#1d6f40" style="animation-play-state:paused" ></path>
<path d="M-171 750L-45 774L-83 647z" stroke="#2c4e75" fill="#2c4e75" style="animation-play-state:paused" ></path>
<path d="M-83 647L-45 774L55 676z" stroke="#236d86" fill="#236d86" style="animation-play-state:paused" ></path>
<path d="M15 751L-45 774L139 755z" stroke="#3b8c8c" fill="#3b8c8c" style="animation-play-state:paused" ></path>
<path d="M139 755L-242 777L464 773z" stroke="#5ea597" fill="#5ea597" style="animation-play-state:paused" ></path>
<path d="M1441 74L1438 -32L1353 59z" stroke="#569d8c" fill="#569d8c" style="animation-play-state:paused" ></path>
<path d="M1232 753L1348 660L1240 664z" stroke="#bfae32" fill="#bfae32" style="animation-play-state:paused" ></path>
<path d="M1331 565L1452 474L1330 459z" stroke="#799d39" fill="#799d39" style="animation-play-state:paused" ></path>
<path d="M-268 461L-271 372L-283 -42z" stroke="#4d4568" fill="#4d4568" style="animation-play-state:paused" ></path>
<path d="M-265 255L-271 372L-161 359z" stroke="#4e3451" fill="#4e3451" style="animation-play-state:paused" ></path>
<path d="M-163 562L-162 669L-83 647z" stroke="#363059" fill="#363059" style="animation-play-state:paused" ></path>
<path d="M1419 353L1523 262L1451 272z" stroke="#79c5b8" fill="#79c5b8" style="animation-play-state:paused" ></path>
<path d="M1451 272L1523 262L1454 149z" stroke="#8cccd3" fill="#8cccd3" style="animation-play-state:paused" ></path>
<path d="M1430 566L1452 474L1331 565z" stroke="#8a9b27" fill="#8a9b27" style="animation-play-state:paused" ></path>
<path d="M-250 559L-162 669L-163 562z" stroke="#37193c" fill="#37193c" style="animation-play-state:paused" ></path>
<path d="M1438 -32L1435 -136L1357 -140z" stroke="#37274f" fill="#37274f" style="animation-play-state:paused" ></path>
<path d="M1357 -140L1435 -136L1236 -153z" stroke="#3b1e40" fill="#3b1e40" style="animation-play-state:paused" ></path>
<path d="M1236 -153L1435 -136L1036 -141z" stroke="#3d2042" fill="#3d2042" style="animation-play-state:paused" ></path>
<path d="M1516 -60L1435 -136L1438 -32z" stroke="#31426b" fill="#31426b" style="animation-play-state:paused" ></path>
<path d="M-283 -42L-271 372L-265 255z" stroke="#005f77" fill="#005f77" style="animation-play-state:paused" ></path>
<path d="M-271 372L-268 461L-161 359z" stroke="#482d4b" fill="#482d4b" style="animation-play-state:paused" ></path>
<path d="M1438 639L1430 566L1331 565z" stroke="#a8a62c" fill="#a8a62c" style="animation-play-state:paused" ></path>
<path d="M-234 -113L-283 -42L-162 -43z" stroke="#d97378" fill="#d97378" style="animation-play-state:paused" ></path>
<path d="M-252 55L-283 -42L-246 159z" stroke="#91641b" fill="#91641b" style="animation-play-state:paused" ></path>
<path d="M-139 -121L-234 -113L-162 -43z" stroke="#d97378" fill="#d97378" style="animation-play-state:paused" ></path>
<path d="M-64 -147L-234 -113L-139 -121z" stroke="#dc837d" fill="#dc837d" style="animation-play-state:paused" ></path>
<path d="M1232 753L1338 760L1348 660z" stroke="#d2b439" fill="#d2b439" style="animation-play-state:paused" ></path>
<path d="M1348 660L1438 639L1331 565z" stroke="#b5aa2f" fill="#b5aa2f" style="animation-play-state:paused" ></path>
<path d="M1539 755L1028 758L740 778z" stroke="#9ca22a" fill="#9ca22a" style="animation-play-state:paused" ></path>
<path d="M-268 461L-250 559L-144 464z" stroke="#402344" fill="#402344" style="animation-play-state:paused" ></path>
<path d="M1542 373L1419 353L1452 474z" stroke="#6db37a" fill="#6db37a" style="animation-play-state:paused" ></path>
<path d="M1542 373L1523 262L1419 353z" stroke="#76c0a7" fill="#76c0a7" style="animation-play-state:paused" ></path>
<path d="M1441 74L1516 -60L1438 -32z" stroke="#2d808b" fill="#2d808b" style="animation-play-state:paused" ></path>
<path d="M1435 745L1438 639L1348 660z" stroke="#dbb63c" fill="#dbb63c" style="animation-play-state:paused" ></path>
<path d="M1549 473L1542 373L1452 474z" stroke="#70a859" fill="#70a859" style="animation-play-state:paused" ></path>
<path d="M1523 262L1545 149L1454 149z" stroke="#9bcfde" fill="#9bcfde" style="animation-play-state:paused" ></path>
<path d="M-251 672L-171 750L-162 669z" stroke="#372046" fill="#372046" style="animation-play-state:paused" ></path>
<path d="M-162 669L-171 750L-83 647z" stroke="#343862" fill="#343862" style="animation-play-state:paused" ></path>
<path d="M1549 473L1452 474L1529 550z" stroke="#7e9728" fill="#7e9728" style="animation-play-state:paused" ></path>
<path d="M1523 262L1552 84L1545 149z" stroke="#90c9d4" fill="#90c9d4" style="animation-play-state:paused" ></path>
<path d="M1552 84L1516 -60L1441 74z" stroke="#599f8d" fill="#599f8d" style="animation-play-state:paused" ></path>
<path d="M1542 373L1552 84L1523 262z" stroke="#86cacd" fill="#86cacd" style="animation-play-state:paused" ></path>
<path d="M1545 149L1552 84L1441 74z" stroke="#71b6b4" fill="#71b6b4" style="animation-play-state:paused" ></path>
<path d="M-250 559L-251 672L-162 669z" stroke="#391a3d" fill="#391a3d" style="animation-play-state:paused" ></path>
<path d="M1529 550L1452 474L1430 566z" stroke="#8d9c28" fill="#8d9c28" style="animation-play-state:paused" ></path>
<path d="M1542 373L1549 473L1552 84z" stroke="#77c2af" fill="#77c2af" style="animation-play-state:paused" ></path>
<path d="M1438 639L1529 550L1430 566z" stroke="#ada82d" fill="#ada82d" style="animation-play-state:paused" ></path>
<path d="M1527 665L1529 550L1438 639z" stroke="#c4af34" fill="#c4af34" style="animation-play-state:paused" ></path>
<path d="M1552 84L1531 -135L1516 -60z" stroke="#236784" fill="#236784" style="animation-play-state:paused" ></path>
<path d="M1516 -60L1531 -135L1435 -136z" stroke="#37244b" fill="#37244b" style="animation-play-state:paused" ></path>
<path d="M1539 755L1435 745L1338 760z" stroke="#da9130" fill="#da9130" style="animation-play-state:paused" ></path>
<path d="M1338 760L1435 745L1348 660z" stroke="#e0b33b" fill="#e0b33b" style="animation-play-state:paused" ></path>
<path d="M-250 559L-242 777L-251 672z" stroke="#3a1c3f" fill="#3a1c3f" style="animation-play-state:paused" ></path>
<path d="M-251 672L-242 777L-171 750z" stroke="#36173b" fill="#36173b" style="animation-play-state:paused" ></path>
<path d="M-171 750L-242 777L-45 774z" stroke="#343862" fill="#343862" style="animation-play-state:paused" ></path>
<path d="M-45 774L-242 777L139 755z" stroke="#236784" fill="#236784" style="animation-play-state:paused" ></path>
<path d="M464 773L-242 777L543 775z" stroke="#79bbbd" fill="#79bbbd" style="animation-play-state:paused" ></path>
<path d="M1435 745L1527 665L1438 639z" stroke="#dfb03a" fill="#dfb03a" style="animation-play-state:paused" ></path>
<path d="M1529 550L1527 665L1549 473z" stroke="#a5a52c" fill="#a5a52c" style="animation-play-state:paused" ></path>
<path d="M543 775L1539 755L740 778z" stroke="#76a042" fill="#76a042" style="animation-play-state:paused" ></path>
<path d="M1435 745L1539 755L1527 665z" stroke="#da9030" fill="#da9030" style="animation-play-state:paused" ></path>
<path d="M1527 665L1539 755L1549 473z" stroke="#d0b338" fill="#d0b338" style="animation-play-state:paused" ></path>
<path d="M1549 473L1539 755L1552 84z" stroke="#70a85a" fill="#70a85a" style="animation-play-state:paused" ></path></g>
<style type="text/css" style="animation-play-state:paused" >#bk-0.4862064328774194 path { stroke-width: 1 }</style></g></svg>